<svg width="88" height="79" viewBox="0 0 88 79" fill="none" xmlns="http://www.w3.org/2000/svg">
<g clip-path="url(#clip0_325_8505)">
<path opacity="0.8" d="M52.804 28.1929C53.2997 28.3951 53.8946 28.6377 54.3093 29.0379C54.3093 29.0379 54.3093 29.0379 54.4084 29.0783C54.4084 29.0783 54.6067 29.1592 54.6654 29.2986C54.9223 29.5189 55.1974 29.9776 55.4724 30.4363C56.2166 32.0102 56.0823 34.0344 55.0514 36.2704C50.9555 36.1012 46.0089 38.0106 43.1529 39.6176C39.5986 41.5173 33.7384 45.9415 31.5956 50.6114C28.7524 50.4911 26.8505 49.4844 25.9667 47.969C25.8675 47.9285 25.8494 47.6901 25.7907 47.5507C25.7907 47.5507 25.6735 47.2719 25.6148 47.1325C25.5381 46.7547 25.3622 46.3364 25.2854 45.9586C25.2086 45.5808 25.2715 45.1445 25.2939 44.8071C25.2939 44.8071 25.2939 44.8071 25.3344 44.7082C25.4154 44.5102 25.4559 44.4112 25.4378 44.1729C25.5188 43.9749 25.6404 43.678 25.6222 43.4396C25.8653 42.8458 26.0678 42.3509 26.3109 41.757C27.2789 39.9574 28.4451 38.2386 29.8683 36.7402C29.8683 36.7402 29.9088 36.6412 29.9494 36.5422C31.9941 34.3733 34.4535 32.6045 37.0302 31.1145C37.1699 31.056 37.3095 30.9974 37.4897 30.8399C37.8095 30.6239 38.0888 30.5068 38.5078 30.3312C38.5078 30.3312 38.5078 30.3312 38.6474 30.2727C39.5259 29.8225 40.3638 29.4713 41.2018 29.1201C42.0397 28.7689 42.9768 28.4581 43.8734 28.2463C44.013 28.1877 44.2518 28.1696 44.3915 28.1111C44.7699 28.0345 45.1484 27.9578 45.4277 27.8408C46.045 27.746 46.5631 27.6109 47.1398 27.6151C47.5183 27.5385 47.8562 27.5608 48.1942 27.5832C49.3882 27.4927 50.5012 27.6002 51.5737 27.8066C51.5737 27.8066 51.6728 27.847 51.772 27.8875C51.8711 27.9279 51.9703 27.9684 52.0694 28.0088C52.2677 28.0897 52.3669 28.1301 52.5652 28.211L52.804 28.1929Z" fill="url(#paint0_linear_325_8505)"/>
<path opacity="0.8" d="M78.4506 16.1326C82.085 22.2349 79.4434 29.8197 76.1791 35.5336C70.5013 44.883 61.9344 52.2455 52.7629 57.9755C43.1725 63.8811 32.3199 68.3479 20.9383 69.0186C14.432 69.3678 6.60476 68.1387 2.88934 62.2345C3.59724 63.3317 8.66558 71.8667 9.43637 72.5276C12.236 75.8639 16.5217 77.2654 20.7349 77.7134C39.7955 79.4818 62.4634 66.783 75.0739 53.2159C81.4511 46.1152 89.453 34.4798 84.1138 24.9103L78.6308 15.9751L78.4506 16.1326Z" fill="url(#paint1_linear_325_8505)"/>
<path opacity="0.8" d="M8.01504 38.6839C20.3494 22.1167 44.9501 8.93575 62.9873 9.24724C81.0244 9.55873 85.6579 23.1138 73.3235 39.6809C60.9892 56.2481 36.3884 69.429 18.3513 69.1175C0.273674 68.905 -4.31928 55.251 8.01504 38.6839ZM53.4165 39.4152C58.217 33.0574 56.3672 27.6831 49.347 27.5917C42.3268 27.5003 32.8217 32.6322 28.0212 38.99C23.2208 45.3478 25.0705 50.7222 31.9916 50.7731C38.9126 50.8241 48.616 45.773 53.3173 39.3748" fill="url(#paint2_linear_325_8505)"/>
<path d="M23.884 38.4407V32.8276C28.9178 28.2836 40.8599 19.4095 40.9134 12.0857C40.967 8.82469 38.3965 7.6486 35.3976 7.59515C32.1309 7.38131 28.1681 8.61086 26.1867 9.62657L23.2949 3.69267C26.7758 1.92854 31.2741 0.859375 35.6118 0.859375C42.6271 0.912833 49.1604 3.90651 49.1068 12.0857C49.0533 19.7837 40.5385 26.8402 34.8621 31.5446H49.5888V38.4407H23.884Z" fill="#485F86"/>
</g>
<defs>
<linearGradient id="paint0_linear_325_8505" x1="24.037" y1="45.334" x2="64.3579" y2="28.1282" gradientUnits="userSpaceOnUse">
<stop stop-color="#A7CDED"/>
<stop offset="1" stop-color="white" stop-opacity="0.7"/>
</linearGradient>
<linearGradient id="paint1_linear_325_8505" x1="94.892" y1="25.1485" x2="13.3726" y2="75.3829" gradientUnits="userSpaceOnUse">
<stop stop-color="#A4D2F8"/>
<stop offset="1" stop-color="white" stop-opacity="0.7"/>
</linearGradient>
<linearGradient id="paint2_linear_325_8505" x1="-23.2232" y1="51.1211" x2="137.465" y2="21.0515" gradientUnits="userSpaceOnUse">
<stop stop-color="white" stop-opacity="0.7"/>
<stop offset="1" stop-color="#BBDFFD"/>
</linearGradient>
<clipPath id="clip0_325_8505">
<rect width="87.8247" height="78.4567" fill="white"/>
</clipPath>
</defs>
</svg>
