<svg width="88" height="79" viewBox="0 0 88 79" fill="none" xmlns="http://www.w3.org/2000/svg">
<g clip-path="url(#clip0_325_8510)">
<path opacity="0.8" d="M61.8701 32.1389C61.9742 31.635 62.0991 31.0304 61.9928 30.4866C61.9928 30.4866 61.9928 30.4866 62.0137 30.3859C62.0137 30.3859 62.0553 30.1843 61.971 30.0636C61.9282 29.7413 61.696 29.2784 61.4638 28.8154C60.5569 27.3868 58.7891 26.4231 56.3498 26.0651C54.2336 29.4336 49.9091 32.3832 46.9901 33.8192C43.4412 35.6593 36.5088 38.0095 31.4199 37.2535C29.9532 39.5934 29.7472 41.6487 30.5282 43.1582C30.5073 43.259 30.6968 43.3997 30.7812 43.5204C30.7812 43.5204 30.9498 43.7618 31.0342 43.8826C31.308 44.1439 31.561 44.5061 31.8348 44.7675C32.1087 45.0289 32.5085 45.2094 32.8031 45.3701C32.8031 45.3701 32.8031 45.3701 32.9083 45.39C33.1186 45.4299 33.2237 45.4498 33.4132 45.5905C33.6235 45.6304 33.939 45.6902 34.1284 45.8309C34.7593 45.9506 35.2851 46.0503 35.916 46.17C37.9555 46.3475 40.0366 46.3234 42.075 45.977C42.075 45.977 42.1802 45.9969 42.2853 46.0169C45.2274 45.5278 48.0632 44.4949 50.7304 43.2206C50.8563 43.1398 50.9823 43.0589 51.2134 42.9981C51.5705 42.8564 51.8224 42.6947 52.2003 42.4522C52.2003 42.4522 52.2003 42.4522 52.3263 42.3714C53.1872 41.9064 53.943 41.4214 54.6988 40.9365C55.4546 40.4515 56.2312 39.8658 56.9027 39.2601C57.0286 39.1793 57.1754 38.9977 57.3014 38.9169C57.5741 38.6544 57.8468 38.392 58.0988 38.2304C58.5183 37.7863 58.917 37.4431 59.2314 36.9791C59.5041 36.7167 59.6717 36.4343 59.8393 36.1519C60.5732 35.2439 61.0968 34.2961 61.5152 33.3282C61.5152 33.3282 61.536 33.2274 61.5568 33.1267C61.5777 33.0259 61.5985 32.9251 61.6193 32.8244C61.6609 32.6228 61.6817 32.522 61.7234 32.3205L61.8701 32.1389Z" fill="url(#paint0_linear_325_8510)"/>
<path opacity="0.8" d="M86.0988 17.993C82.9959 11.8541 75.1928 9.955 68.6121 9.54442C57.6588 9.14214 46.7755 12.1042 36.9252 16.4142C26.6969 20.9666 16.9768 27.291 10.1417 36.0477C6.26306 41.0716 2.97692 47.9882 5.86954 54.0871C5.34162 52.9398 0.993363 44.3655 0.865232 43.3987C-0.383348 39.3919 0.806275 35.2192 2.75385 31.6093C11.7808 15.4143 34.9024 3.9875 53.2065 1.07176C62.6636 -0.275888 76.8108 -0.52437 81.8754 8.81409L86.3299 17.9321L86.0988 17.993Z" fill="url(#paint1_linear_325_8510)"/>
<path opacity="0.8" d="M28.4004 62.4449C49.0627 61.3379 73.6531 48.6189 83.335 34.0143C93.017 19.4096 84.2283 8.52695 63.566 9.63398C42.9037 10.741 18.3133 23.46 8.63135 38.0646C-1.15574 52.6493 7.73807 63.5519 28.4004 62.4449ZM52.815 25.7113C60.7813 25.2328 64.2589 29.5578 60.4656 35.2262C56.6724 40.8946 47.1385 45.7883 39.1722 46.2668C31.2059 46.7453 27.7283 42.4203 31.5007 36.8527C35.2732 31.285 44.8487 26.1898 52.7942 25.8121" fill="url(#paint2_linear_325_8510)"/>
<path d="M51.3463 77.681V70.2312H33.9277V65.0324L50.0064 40.1641H59.5464V63.9069H63.2445V70.2312H59.5464V77.681H51.3463ZM42.0743 63.9069H51.3463V49.3825L42.0743 63.9069Z" fill="#485F86"/>
</g>
<defs>
<linearGradient id="paint0_linear_325_8510" x1="31.6694" y1="46.0975" x2="67.2988" y2="21.4841" gradientUnits="userSpaceOnUse">
<stop stop-color="#A7CDED"/>
<stop offset="1" stop-color="white" stop-opacity="0.7"/>
</linearGradient>
<linearGradient id="paint1_linear_325_8510" x1="87.6173" y1="0.0595119" x2="2.06333" y2="41.6524" gradientUnits="userSpaceOnUse">
<stop stop-color="#A4D2F8"/>
<stop offset="1" stop-color="white" stop-opacity="0.7"/>
</linearGradient>
<linearGradient id="paint2_linear_325_8510" x1="0.773571" y1="80.8712" x2="109.446" y2="-36.5445" gradientUnits="userSpaceOnUse">
<stop stop-color="white" stop-opacity="0.7"/>
<stop offset="1" stop-color="#BBDFFD"/>
</linearGradient>
<clipPath id="clip0_325_8510">
<rect width="87.8247" height="78.4567" fill="white"/>
</clipPath>
</defs>
</svg>
