<svg width="126" height="126" viewBox="0 0 126 126" fill="none" xmlns="http://www.w3.org/2000/svg">
<g filter="url(#filter0_d_482_4289)">
<g opacity="0.6">
<mask id="mask0_482_4289" style="mask-type:luminance" maskUnits="userSpaceOnUse" x="34" y="19" width="70" height="71">
<path d="M93.6529 19.8594H44.3764C38.8269 19.8594 34.3281 24.3581 34.3281 29.9076V79.1841C34.3281 84.7336 38.8269 89.2324 44.3764 89.2324H93.6529C99.2024 89.2324 103.701 84.7336 103.701 79.1841V29.9076C103.701 24.3581 99.2024 19.8594 93.6529 19.8594Z" fill="white"/>
</mask>
<g mask="url(#mask0_482_4289)">
<g filter="url(#filter1_f_482_4289)">
<path d="M8.99324 23.5693L38.1159 -5.55339C41.394 -8.83147 46.7149 -8.83147 49.993 -5.55339L79.1156 23.5693C82.3937 26.8473 82.3937 32.1683 79.1156 35.4464L49.993 64.569C46.7149 67.8471 41.394 67.8471 38.1159 64.569L8.99324 35.4464C5.71516 32.1683 5.71516 26.8473 8.99324 23.5693Z" fill="url(#paint0_linear_482_4289)"/>
</g>
</g>
</g>
<mask id="mask1_482_4289" style="mask-type:luminance" maskUnits="userSpaceOnUse" x="19" y="4" width="101" height="101">
<path d="M104.585 4.50391H33.5241C25.4856 4.50391 19.0547 11.0152 19.0547 18.9734V90.0345C19.0547 98.073 25.5659 104.504 33.5241 104.504H104.585C112.624 104.504 119.055 97.9927 119.055 90.0345V19.0537C119.055 11.0152 112.543 4.58429 104.585 4.58429V4.50391ZM103.781 79.1824C103.781 84.729 99.2798 89.2306 93.7331 89.2306H44.4566C38.91 89.2306 34.4084 84.729 34.4084 79.1824V29.9058C34.4084 24.3592 38.91 19.8576 44.4566 19.8576H93.7331C99.2798 19.8576 103.781 24.3592 103.781 29.9058V79.1824Z" fill="white"/>
</mask>
<g mask="url(#mask1_482_4289)">
<path d="M27.0563 47.43L61.9001 12.5862C65.8222 8.66416 72.1884 8.66416 76.1105 12.5862L110.954 47.43C114.876 51.352 114.876 57.7183 110.954 61.6403L76.1105 96.4841C72.1884 100.406 65.8222 100.406 61.9001 96.4841L27.0563 61.6403C23.1343 57.7183 23.1343 51.352 27.0563 47.43Z" fill="url(#paint1_linear_482_4289)"/>
</g>
<path d="M44.3775 22.1094H93.654C97.9949 22.1094 101.451 25.566 101.451 29.9068V79.1833C101.451 83.5242 97.9949 86.9808 93.654 86.9808H44.3775C40.0367 86.9808 36.5801 83.5242 36.5801 79.1833V29.9068C36.5801 25.566 40.0367 22.1094 44.3775 22.1094Z" fill="url(#paint2_linear_482_4289)"/>
<g clip-path="url(#clip0_482_4289)">
<path d="M83.9147 45.348C85.7499 46.0493 87.1759 47.1714 88.1929 48.7962C88.789 49.743 89.1748 50.7834 89.3384 51.8938C89.4553 52.7354 89.2566 52.9575 88.415 52.9575C86.5681 52.9575 84.7212 52.9575 82.8627 52.9575C82.9679 53.8693 82.9912 53.8927 83.8562 53.9277C84.616 53.9511 85.3758 53.9979 86.1356 54.0212C86.5798 54.0329 86.9421 54.1966 87.0824 54.6525C87.2227 55.0849 87.0824 55.4473 86.7201 55.7395C86.0304 56.2772 85.3641 56.85 84.6628 57.376C84.4056 57.5747 84.3472 57.7617 84.429 58.0657C84.6745 58.9073 84.8732 59.7606 85.1187 60.6022C85.2589 61.0581 85.1771 61.4087 84.8147 61.6893C84.4407 61.9815 84.0549 61.9114 83.6809 61.6659C82.9796 61.21 82.2782 60.7658 81.5886 60.2749C81.2613 60.0411 81.0041 60.0177 80.6651 60.2749C80.0222 60.7425 79.3326 61.1633 78.6663 61.5958C78.4208 61.7594 78.1753 61.9231 77.8597 61.888C77.5558 61.8529 77.4857 62.1218 77.3454 62.2854C74.9024 65.1492 71.8048 66.435 68.0643 65.9675C65.3992 65.6285 63.225 64.3427 61.5301 62.262C61.3548 62.0516 61.2145 61.8529 60.8755 61.8646C60.7002 61.8646 60.5132 61.7477 60.3495 61.6542C59.9871 61.4321 59.6365 61.1866 59.2741 60.9529C58.7832 60.6373 58.2805 60.0996 57.7896 60.0996C57.2987 60.0996 56.796 60.6489 56.3051 60.9646C55.931 61.21 55.557 61.4555 55.1829 61.701C54.8206 61.9347 54.4582 61.9581 54.0959 61.701C53.7569 61.4438 53.6867 61.0931 53.7803 60.7074C54.0023 59.819 54.2244 58.9307 54.4933 58.0657C54.5868 57.7617 54.5284 57.6098 54.2946 57.4345C53.6049 56.8968 52.927 56.3357 52.2373 55.798C51.8632 55.5058 51.6645 55.1434 51.8282 54.6758C51.9918 54.2083 52.3776 54.068 52.8451 54.0563C53.6984 54.0329 54.5634 53.9862 55.4167 53.9511C55.6037 53.9511 55.7908 53.9862 55.896 53.7407C56.1064 53.2615 56.0713 53.1679 55.557 53.1679C53.8621 53.1679 52.1672 53.1679 50.4722 53.1679C49.6073 53.1679 49.4085 52.9575 49.5488 52.1159C50.0631 49.1352 51.723 47.0078 54.4933 45.7804C54.8673 45.6168 54.9959 45.5467 54.6219 45.196C53.1374 43.805 52.7867 41.8295 53.64 40.006C54.4232 38.3462 56.235 37.3176 58.0818 37.4929C59.9871 37.6682 61.6002 39.0475 62.021 40.9646C62.3717 42.5543 61.9509 43.9803 60.782 45.1376C60.4664 45.4532 60.3144 45.6051 60.8755 45.7921C61.3665 45.9558 61.8691 46.4584 62.2665 46.3766C62.6289 46.2948 62.851 45.6168 63.1783 45.2194C64.0316 44.2024 65.0719 43.4309 66.2992 42.9283C66.4395 42.8699 66.6149 42.8582 66.6967 42.6945C64.5459 40.2632 64.429 37.7734 66.3694 35.8915C68.076 34.2433 70.7762 34.22 72.5061 35.8447C74.4816 37.7033 74.3764 40.1931 72.2139 42.6945C72.3893 42.9049 72.6581 42.9283 72.8802 43.0335C74.3063 43.7115 75.4635 44.6934 76.3168 46.0142C76.5038 46.2948 76.6324 46.3883 76.948 46.1662C77.4156 45.8272 77.9649 45.6168 78.526 45.3947C75.9194 43.1037 76.5623 40.0411 78.1169 38.5683C79.8819 36.8851 82.6523 36.8968 84.3822 38.6267C85.9603 40.2165 86.4395 43.1504 83.9147 45.4064V45.348ZM62.1379 53.1212C61.2262 53.1212 60.6067 53.1329 59.9871 53.1212C59.578 53.1095 59.5313 53.2381 59.6715 53.6004C59.7767 53.8693 59.9521 53.916 60.2092 53.9277C61.0625 53.9511 61.9158 54.0096 62.7808 54.0329C63.2484 54.0446 63.6224 54.2083 63.7861 54.6758C63.9614 55.1551 63.716 55.4941 63.3536 55.7746C62.6873 56.3123 62.021 56.85 61.3548 57.3877C61.2145 57.5046 60.9924 57.5864 61.0625 57.8436C61.3197 58.6969 61.4015 59.6203 61.834 60.4035C63.5056 63.466 67.1759 65.2077 70.7528 64.6817C74.353 64.1557 77.0766 61.5958 77.8364 58.0423C77.8948 57.7617 77.848 57.5747 77.6143 57.3994C76.948 56.8851 76.3051 56.3474 75.6505 55.8331C75.2881 55.5408 74.9842 55.2252 75.1596 54.6992C75.3349 54.1498 75.7674 54.0563 76.27 54.0329C77.1233 54.0096 77.9766 53.9511 78.8416 53.9277C79.3559 53.916 79.3559 53.4719 79.391 53.1796C79.4378 52.7705 79.0403 52.9926 78.8767 52.9809C77.7662 52.9575 76.6558 52.9809 75.5453 52.9692C75.2881 52.9692 75.0661 52.9926 74.844 53.1796C74.2361 53.694 73.6166 54.1966 72.9737 54.6758C72.7165 54.8745 72.6698 55.0733 72.7516 55.3772C72.9971 56.2188 73.2075 57.0604 73.453 57.902C73.5815 58.3462 73.5114 58.7203 73.1257 58.9891C72.7399 59.2696 72.3659 59.1761 71.9918 58.9307C71.2788 58.4514 70.5541 58.0072 69.8527 57.5163C69.5722 57.3176 69.3735 57.3059 69.0812 57.5163C68.3448 58.0306 67.585 58.4982 66.8369 58.9891C66.4863 59.2112 66.1356 59.2463 65.7966 59.0125C65.4343 58.767 65.3291 58.4163 65.4459 57.9838C65.6563 57.2124 65.8083 56.4292 66.0772 55.6811C66.2759 55.1317 66.1005 54.8512 65.6914 54.4654C64.5926 53.4251 63.412 52.7939 62.1496 53.1446L62.1379 53.1212ZM62.699 49.0066C64.3706 49.0066 66.007 48.9833 67.6318 49.0183C68.1461 49.03 68.3916 48.8664 68.5436 48.3754C68.7189 47.7793 69.1631 47.4987 69.6073 47.6039C70.0281 47.6975 70.2735 48.0014 70.367 48.4105C70.4839 48.8897 70.7528 49.03 71.2437 49.0183C72.7282 48.9833 74.2011 48.9833 75.6856 49.0183C76.1648 49.0183 76.2233 48.9131 76.083 48.4689C75.2063 45.5467 72.3893 43.466 69.3735 43.5245C66.1473 43.5946 63.4588 45.7688 62.699 49.0066ZM85.0719 51.6717C85.8551 51.6717 86.6265 51.6484 87.4097 51.6717C87.8656 51.6834 87.9825 51.5899 87.8539 51.1107C86.685 46.7857 81.0976 44.7401 77.4389 47.3117C77.2052 47.4754 77.1584 47.6039 77.2402 47.8845C77.3922 48.3871 77.4974 48.9014 77.5792 49.4158C77.661 49.9768 77.4039 50.2574 76.8428 50.2807C76.2934 50.2924 75.7557 50.2924 75.2063 50.2807C74.6803 50.2807 74.7621 50.7366 74.6219 51.0172C74.4582 51.3678 74.8206 51.286 74.9492 51.4029C75.2648 51.6717 75.6154 51.6601 75.9895 51.6484C77.0766 51.6484 78.1753 51.625 79.2624 51.6484C79.7767 51.6601 80.069 51.5549 80.2326 51.0055C80.4196 50.3626 81.0041 50.1288 81.5067 50.3743C81.834 50.5262 81.9743 50.8418 82.0678 51.1574C82.173 51.5549 82.3951 51.6601 82.7808 51.6484C83.5406 51.6133 84.3004 51.6484 85.0602 51.6484L85.0719 51.6717ZM53.7686 51.8354C54.353 51.8354 54.9375 51.7886 55.5219 51.8471C56.2934 51.9289 56.8194 51.7653 56.9831 50.9003C57.0532 50.5262 57.3922 50.3392 57.7779 50.3275C58.1637 50.3158 58.4559 50.4911 58.6195 50.8418C58.6897 51.0055 58.7715 51.1574 58.8066 51.3328C58.9001 51.7068 59.1105 51.8588 59.5196 51.8354C60.5132 51.8003 61.5067 51.8354 62.5003 51.8237C62.9912 51.8237 63.5172 51.9406 63.8796 51.4496C63.9848 51.3094 64.3939 51.4029 64.2069 51.0172C64.0549 50.7015 64.0783 50.2691 63.5406 50.2924C63.038 50.3158 62.5237 50.3041 62.021 50.2924C61.4834 50.2807 61.2496 50.0002 61.2963 49.4625C61.3431 48.9949 61.4132 48.5274 61.5886 48.0949C61.7288 47.7559 61.6002 47.5689 61.308 47.3935C60.2092 46.739 59.0403 46.4117 57.7545 46.3766C54.7738 46.3065 51.9217 48.3404 51.0684 51.1691C50.8697 51.8237 50.8697 51.8237 51.5243 51.8237C52.2607 51.8237 53.0088 51.8237 53.7452 51.8237L53.7686 51.8354ZM69.4436 42.2387C71.197 42.2387 72.6113 40.8594 72.623 39.1177C72.6347 37.3409 71.232 35.9149 69.4553 35.9149C67.7019 35.9149 66.2876 37.3059 66.2759 39.0475C66.2642 40.8243 67.6669 42.2387 69.4436 42.2504V42.2387ZM78.0585 41.7594C78.0701 43.5245 79.5079 44.9388 81.2846 44.9155C82.9912 44.8921 84.4407 43.4193 84.4173 41.701C84.3939 39.9476 82.9445 38.5332 81.1677 38.5566C79.4261 38.58 78.0468 40.006 78.0585 41.7594ZM60.8521 41.8763C60.8521 40.1229 59.4378 38.7319 57.6844 38.7203C55.931 38.7203 54.4699 40.1814 54.4933 41.9231C54.505 43.653 55.9427 45.0674 57.6727 45.0674C59.4495 45.0674 60.8521 43.653 60.8405 41.8763H60.8521ZM66.9421 57.3409C67.5967 56.9201 68.1578 56.6045 68.6721 56.2188C69.2332 55.798 69.7125 55.8214 70.2618 56.2188C70.7645 56.5928 71.3139 56.9084 71.9684 57.3176C71.758 56.5344 71.5944 55.9032 71.4074 55.272C71.232 54.6992 71.3489 54.255 71.8516 53.8927C72.3776 53.5069 72.8685 53.0744 73.3711 52.6653C72.7516 52.5134 72.1789 52.4783 71.6061 52.4549C70.5774 52.4082 70.4956 52.338 70.1216 51.3795C69.9112 50.8301 69.7592 50.2574 69.4085 49.6846C69.1631 50.3392 68.9293 50.8886 68.754 51.4613C68.5435 52.151 68.1227 52.4783 67.3863 52.4666C66.7785 52.4549 66.1707 52.5134 65.5628 52.5367C65.9836 53.0394 66.4395 53.4017 66.8954 53.7641C67.6552 54.3719 67.7136 54.5823 67.4448 55.5174C67.2811 56.0668 67.1409 56.6279 66.9421 57.3176V57.3409ZM55.37 60.0294C55.9661 59.6437 56.5038 59.3281 56.9831 58.954C57.5558 58.5215 58.0585 58.5332 58.6195 58.954C59.1222 59.3281 59.6599 59.6437 60.3028 60.0645C60.0807 59.2346 59.9404 58.58 59.73 57.9371C59.5547 57.3877 59.73 57.002 60.1625 56.6747C60.6885 56.2655 61.2028 55.833 61.7756 55.3772C61.6236 55.3304 61.5769 55.307 61.5184 55.2954C60.9573 55.2603 60.3846 55.2369 59.8235 55.2135C59.017 55.1785 58.8182 55.0382 58.5377 54.2901C58.3156 53.694 58.0818 53.0978 57.8013 52.3731C57.5091 53.1212 57.2519 53.729 57.0415 54.3602C56.8428 54.9681 56.4454 55.2252 55.8142 55.2252C55.1829 55.2252 54.5517 55.2252 53.8036 55.3655C54.3647 55.8214 54.844 56.2071 55.3232 56.5928C56.0012 57.1539 56.0362 57.3176 55.8142 58.1475C55.6505 58.7436 55.4284 59.3281 55.3583 60.0411L55.37 60.0294ZM78.6312 60.0528C79.3442 59.5852 79.9521 59.2112 80.5365 58.8138C80.9457 58.5449 81.3197 58.5449 81.7288 58.8138C82.325 59.2112 82.9328 59.5969 83.6341 60.0528C83.4354 59.3047 83.3068 58.6618 83.0964 58.0423C82.886 57.4345 83.038 57.002 83.5406 56.6162C84.0666 56.2305 84.5576 55.8097 85.2005 55.2954C84.429 55.2603 83.8329 55.2252 83.2367 55.2018C82.3367 55.1668 82.2081 55.0616 81.8574 54.2316C81.6236 53.6589 81.495 53.0277 81.0859 52.4549C80.8288 53.1095 80.6067 53.694 80.3963 54.2784C80.1157 55.0265 79.917 55.1668 79.1105 55.2018C78.4909 55.2252 77.8597 55.2603 77.0883 55.307C77.7662 55.8564 78.3156 56.3006 78.8533 56.7331C79.2507 57.0487 79.3676 57.4111 79.2157 57.9137C79.0053 58.58 78.8533 59.2579 78.6429 60.0645L78.6312 60.0528ZM65.3758 50.2924C65.5044 50.6431 65.3875 51.1224 65.7849 51.1925C66.2876 51.2743 66.8253 51.2276 67.3396 51.134C67.6435 51.0756 67.7253 50.6782 67.7019 50.421C67.6902 50.1755 67.3863 50.3041 67.211 50.2924C66.6149 50.2691 66.0187 50.2924 65.3758 50.2924ZM72.3074 50.2924C72.0152 50.2924 71.723 50.2924 71.4307 50.2924C71.1736 50.2924 71.1268 50.3859 71.197 50.608C71.3139 50.947 71.4424 51.2509 71.91 51.1925C72.1789 51.1574 72.4594 51.1691 72.7165 51.2159C73.3127 51.3211 73.3711 50.8652 73.3828 50.5145C73.4062 50.082 73.0088 50.3509 72.8101 50.2924C72.6464 50.2457 72.4594 50.2924 72.2841 50.2924H72.3074Z" fill="white"/>
<path d="M83.1892 62.6018C83.0022 63.2564 82.71 63.911 82.3476 64.5305C82.1255 64.9163 82.1138 65.2202 82.3125 65.6059C82.5814 66.1436 82.7918 66.7164 83.049 67.2541C83.2126 67.6048 83.1775 67.897 82.9204 68.1541C81.9151 69.1594 80.9098 70.1647 79.9046 71.1699C79.6591 71.4154 79.3786 71.4505 79.0513 71.2985C78.3499 70.9712 77.6486 70.492 76.9122 70.4218C76.1641 70.3517 75.5329 71.0647 74.7965 71.2868C74.6679 71.3219 74.5393 71.4154 74.4107 71.4271C73.3821 71.544 72.973 72.2219 72.6574 73.1337C72.0846 74.8052 72.3418 74.5714 70.6352 74.5831C69.5831 74.5831 68.5311 74.5597 67.4791 74.5831C66.9882 74.5948 66.7193 74.3844 66.5674 73.9519C66.3219 73.274 66.1816 72.5025 65.7608 71.9648C65.3283 71.4154 64.4516 71.4738 63.8204 71.1465C63.7386 71.0998 63.6334 71.0764 63.5516 71.018C62.5229 70.2114 61.5294 70.4101 60.454 71.0063C59.4137 71.579 59.3786 71.5206 58.5253 70.6556C57.7304 69.8607 56.9356 69.0425 56.129 68.2593C55.7667 67.9087 55.6965 67.5697 55.9186 67.1138C56.2342 66.4709 56.655 65.8163 56.7485 65.1384C56.8421 64.4604 56.1758 63.911 55.9654 63.2447C55.9069 63.046 55.8017 62.8473 55.7433 62.6486C55.6498 62.2979 55.79 62.0291 56.1173 61.8888C56.4563 61.7485 56.7719 61.8537 56.9122 62.181C57.2862 63.0577 57.6954 63.9227 58.1629 64.7526C58.2798 64.963 58.198 65.1617 58.1045 65.3605C57.8473 65.9332 57.6135 66.506 57.3447 67.0671C57.2161 67.3476 57.1927 67.5463 57.4499 67.7801C58.1045 68.3996 58.7357 69.0308 59.3552 69.6737C59.589 69.9192 59.7994 69.9659 60.0682 69.7906C61.3891 68.9373 62.6632 68.797 64.0191 69.7906C64.6153 70.2348 65.4101 70.3868 66.1466 70.5621C66.5907 70.6673 66.8128 70.9128 66.9531 71.3102C67.1401 71.8362 67.3739 72.3622 67.5492 72.8882C67.6544 73.2038 67.8298 73.2973 68.1454 73.2973C69.0221 73.274 69.8987 73.274 70.7754 73.2973C71.1144 73.2973 71.3014 73.2155 71.4183 72.8648C71.6054 72.2921 71.8508 71.7427 72.0612 71.1699C72.1781 70.8543 72.3768 70.6673 72.7158 70.5855C73.9899 70.2582 75.1939 69.7789 76.316 69.0893C76.6083 68.9139 76.8888 68.8906 77.1927 69.0425C77.7421 69.2997 78.3032 69.5218 78.8409 69.7789C79.1448 69.9309 79.3552 69.9075 79.6007 69.6503C80.1968 69.0074 80.8163 68.3879 81.4592 67.7918C81.7281 67.5346 81.7164 67.3359 81.5644 67.032C81.2956 66.4709 81.0618 65.8865 80.8046 65.3254C80.6878 65.0682 80.6878 64.8461 80.828 64.6124C81.2722 63.8759 81.6346 63.1045 81.9502 62.3096C82.0788 61.9823 82.3359 61.8187 82.6866 61.9005C83.0139 61.9706 83.1658 62.2044 83.1892 62.5785V62.6018Z" fill="white"/>
<path d="M74.6554 55.9961C74.8658 55.9961 75.0879 55.9961 75.2983 55.9961C75.6724 55.9961 75.8828 56.1948 75.9295 56.5572C75.9646 56.9429 75.7425 57.2118 75.3802 57.2585C74.9009 57.3053 74.41 57.3053 73.9307 57.2585C73.58 57.2234 73.3696 56.9663 73.3813 56.6156C73.4047 56.2416 73.6151 56.0078 74.0242 56.0078C74.2346 56.0078 74.4567 56.0078 74.6671 56.0078L74.6554 55.9961Z" fill="white"/>
<path d="M64.2288 57.2703C63.995 57.2703 63.7612 57.3053 63.5392 57.2703C63.1768 57.2001 62.943 56.9547 62.9781 56.5806C63.0131 56.2416 63.2236 56.0195 63.5976 56.0195C64.0184 56.0195 64.4509 56.0195 64.8717 56.0195C65.2574 56.0195 65.4912 56.2182 65.5029 56.6157C65.5146 57.0131 65.2925 57.2352 64.9185 57.282C64.6964 57.317 64.4509 57.282 64.2288 57.282V57.2703Z" fill="white"/>
</g>
<path d="M93.654 22.1094H44.3775C40.0367 22.1094 36.5801 25.566 36.5801 29.9068V31.3537C36.5801 27.0129 40.0367 23.5563 44.3775 23.5563H93.654C97.9949 23.5563 101.451 27.0129 101.451 31.3537V29.9068C101.451 25.566 97.9949 22.1094 93.654 22.1094Z" fill="white"/>
<path d="M93.6529 19.8594H44.3764C38.8297 19.8594 34.3281 24.361 34.3281 29.9076V79.1841C34.3281 84.7308 38.8297 89.2324 44.3764 89.2324H93.6529C99.1995 89.2324 103.701 84.7308 103.701 79.1841V29.9076C103.701 24.361 99.1995 19.8594 93.6529 19.8594ZM101.45 79.1841C101.45 83.525 97.9937 86.9816 93.6529 86.9816H44.3764C40.0355 86.9816 36.5789 83.525 36.5789 79.1841V29.9076C36.5789 25.5668 40.0355 22.1102 44.3764 22.1102H93.6529C97.9937 22.1102 101.45 25.5668 101.45 29.9076V79.1841Z" fill="url(#paint3_linear_482_4289)"/>
</g>
<defs>
<filter id="filter0_d_482_4289" x="-0.000520706" y="-0.00177002" width="125.151" height="125.151" filterUnits="userSpaceOnUse" color-interpolation-filters="sRGB">
<feFlood flood-opacity="0" result="BackgroundImageFix"/>
<feColorMatrix in="SourceAlpha" type="matrix" values="0 0 0 0 0 0 0 0 0 0 0 0 0 0 0 0 0 0 127 0" result="hardAlpha"/>
<feOffset dx="-6.43087" dy="8.03859"/>
<feGaussianBlur stdDeviation="8.84244"/>
<feColorMatrix type="matrix" values="0 0 0 0 0.709804 0 0 0 0 0.85098 0 0 0 0 0.960784 0 0 0 0.8 0"/>
<feBlend mode="normal" in2="BackgroundImageFix" result="effect1_dropShadow_482_4289"/>
<feBlend mode="normal" in="SourceGraphic" in2="effect1_dropShadow_482_4289" result="shape"/>
</filter>
<filter id="filter1_f_482_4289" x="-1.36484" y="-15.9117" width="90.8391" height="90.8391" filterUnits="userSpaceOnUse" color-interpolation-filters="sRGB">
<feFlood flood-opacity="0" result="BackgroundImageFix"/>
<feBlend mode="normal" in="SourceGraphic" in2="BackgroundImageFix" result="shape"/>
<feGaussianBlur stdDeviation="3.95" result="effect1_foregroundBlur_482_4289"/>
</filter>
<linearGradient id="paint0_linear_482_4289" x1="44.0489" y1="-8.40172" x2="44.0489" y2="74.104" gradientUnits="userSpaceOnUse">
<stop stop-color="#FF9A17"/>
<stop offset="0.2" stop-color="#FFA21D"/>
<stop offset="0.5" stop-color="#FFB82E"/>
<stop offset="0.8" stop-color="#FFDD4B"/>
<stop offset="1" stop-color="#FFF05A"/>
</linearGradient>
<linearGradient id="paint1_linear_482_4289" x1="68.9986" y1="9.17834" x2="68.9986" y2="107.892" gradientUnits="userSpaceOnUse">
<stop stop-color="#FF9A17"/>
<stop offset="0.2" stop-color="#FFA21D"/>
<stop offset="0.5" stop-color="#FFB82E"/>
<stop offset="0.8" stop-color="#FFDD4B"/>
<stop offset="1" stop-color="#FFF05A"/>
</linearGradient>
<linearGradient id="paint2_linear_482_4289" x1="69.056" y1="23.2348" x2="69.056" y2="85.9357" gradientUnits="userSpaceOnUse">
<stop stop-color="white" stop-opacity="0.6"/>
<stop offset="0.1" stop-color="white" stop-opacity="0.5"/>
<stop offset="0.2" stop-color="white" stop-opacity="0.5"/>
<stop offset="0.3" stop-color="white" stop-opacity="0.5"/>
<stop offset="0.5" stop-color="#FDFDFD" stop-opacity="0.5"/>
<stop offset="0.7" stop-color="#F9F9F9" stop-opacity="0.4"/>
<stop offset="0.9" stop-color="#F3F3F3" stop-opacity="0.4"/>
<stop offset="1" stop-color="#EFEFEF" stop-opacity="0.3"/>
</linearGradient>
<linearGradient id="paint3_linear_482_4289" x1="34.3281" y1="54.5861" x2="103.701" y2="54.5861" gradientUnits="userSpaceOnUse">
<stop stop-color="white" stop-opacity="0.8"/>
<stop offset="0.1" stop-color="white" stop-opacity="0.7"/>
<stop offset="0.2" stop-color="white" stop-opacity="0.5"/>
<stop offset="0.3" stop-color="white" stop-opacity="0.5"/>
<stop offset="0.5" stop-color="#FDFDFD" stop-opacity="0.5"/>
<stop offset="0.7" stop-color="#F9F9F9" stop-opacity="0.4"/>
<stop offset="0.9" stop-color="#F3F3F3" stop-opacity="0.4"/>
<stop offset="1" stop-color="#EFEFEF" stop-opacity="0.3"/>
</linearGradient>
<clipPath id="clip0_482_4289">
<rect width="39.8363" height="40" fill="white" transform="translate(49.5371 34.6055)"/>
</clipPath>
</defs>
</svg>
