<svg width="126" height="126" viewBox="0 0 126 126" fill="none" xmlns="http://www.w3.org/2000/svg">
<g filter="url(#filter0_d_482_4244)">
<g opacity="0.6">
<mask id="mask0_482_4244" style="mask-type:luminance" maskUnits="userSpaceOnUse" x="34" y="19" width="70" height="71">
<path d="M93.6841 19.8594H44.4076C38.8581 19.8594 34.3594 24.3581 34.3594 29.9076V79.1841C34.3594 84.7336 38.8581 89.2324 44.4076 89.2324H93.6841C99.2336 89.2324 103.732 84.7336 103.732 79.1841V29.9076C103.732 24.3581 99.2336 19.8594 93.6841 19.8594Z" fill="white"/>
</mask>
<g mask="url(#mask0_482_4244)">
<g filter="url(#filter1_f_482_4244)">
<g filter="url(#filter2_f_482_4244)">
<path d="M16.9444 31.5693L46.0671 2.44661C49.3451 -0.831472 54.6661 -0.831469 57.9442 2.44661L87.0668 31.5693C90.3449 34.8473 90.3449 40.1683 87.0668 43.4464L57.9442 72.569C54.6661 75.8471 49.3451 75.8471 46.0671 72.569L16.9444 43.4464C13.6663 40.1683 13.6663 34.8473 16.9444 31.5693Z" fill="url(#paint0_linear_482_4244)"/>
</g>
</g>
</g>
</g>
<mask id="mask1_482_4244" style="mask-type:luminance" maskUnits="userSpaceOnUse" x="19" y="4" width="101" height="101">
<path d="M104.536 4.50391H33.4753C25.4367 4.50391 19.0059 11.0152 19.0059 18.9734V90.0345C19.0059 98.073 25.5171 104.504 33.4753 104.504H104.536C112.575 104.504 119.006 97.9927 119.006 90.0345V19.0537C119.006 11.0152 112.495 4.58429 104.536 4.58429V4.50391ZM103.733 79.1824C103.733 84.729 99.2309 89.2306 93.6843 89.2306H44.4078C38.8612 89.2306 34.3596 84.729 34.3596 79.1824V29.9058C34.3596 24.3592 38.8612 19.8576 44.4078 19.8576H93.6843C99.2309 19.8576 103.733 24.3592 103.733 29.9058V79.1824Z" fill="white"/>
</mask>
<g mask="url(#mask1_482_4244)">
<path d="M27.0563 47.43L61.9001 12.5862C65.8222 8.66416 72.1884 8.66417 76.1105 12.5862L110.954 47.43C114.876 51.352 114.876 57.7183 110.954 61.6403L76.1104 96.4841C72.1884 100.406 65.8222 100.406 61.9001 96.4841L27.0563 61.6403C23.1343 57.7183 23.1343 51.352 27.0563 47.43Z" fill="url(#paint1_linear_482_4244)"/>
</g>
<path d="M44.4088 22.1094H93.6853C98.0261 22.1094 101.483 25.566 101.483 29.9068V79.1833C101.483 83.5242 98.0261 86.9808 93.6853 86.9808H44.4088C40.0679 86.9808 36.6113 83.5242 36.6113 79.1833V29.9068C36.6113 25.566 40.0679 22.1094 44.4088 22.1094Z" fill="url(#paint2_linear_482_4244)"/>
<g clip-path="url(#clip0_482_4244)">
<path d="M52.5137 54.0158C52.5137 49.0061 52.5137 44.0119 52.5137 39.0022C52.5137 36.7929 53.7116 35.0815 55.7031 34.3192C56.2787 34.1014 56.87 34.0547 57.4612 34.0547C63.7467 34.0547 70.0166 34.0547 76.2865 34.0547C76.7999 34.0547 77.1578 34.2103 77.5156 34.5681C79.9738 37.0574 82.4475 39.5312 84.9369 41.9893C85.3258 42.3783 85.5125 42.7984 85.5125 43.3585C85.5125 51.8843 85.5125 60.4102 85.5125 68.9361C85.5125 71.9699 83.4744 74.0391 80.4561 74.0391C72.8326 74.0391 65.2091 74.0391 57.6012 74.0391C54.5518 74.0391 52.5137 71.9699 52.5137 68.9516C52.5137 63.973 52.5137 58.9944 52.5137 54.0158ZM54.0539 54.078C54.0539 59.1033 54.0539 64.1441 54.0539 69.1694C54.0539 71.0675 55.3919 72.5144 57.2122 72.5144C65.0691 72.53 72.926 72.53 80.7828 72.5144C82.5565 72.5144 83.9567 71.1142 83.9567 69.3406C83.9722 60.9392 83.9567 52.5378 83.9722 44.1364C83.9722 43.6229 83.77 43.5452 83.3344 43.5607C81.9341 43.5763 80.5339 43.5607 79.1337 43.5607C77.1578 43.5607 75.9287 42.3316 75.8976 40.3713C75.882 39.0177 75.8509 37.6797 75.8976 36.3262C75.9287 35.6416 75.742 35.4549 75.0419 35.4549C69.2387 35.486 63.4199 35.4549 57.6167 35.4705C55.3608 35.4705 54.0539 36.7774 54.0539 39.0489C54.0539 44.0586 54.0539 49.0527 54.0539 54.0625V54.078ZM82.5876 42.0827C80.8606 40.3402 79.1648 38.6132 77.4223 36.8396C77.4223 38.1776 77.3756 39.5156 77.4378 40.8536C77.4689 41.5226 77.9512 42.036 78.6358 42.0671C79.9738 42.1294 81.2962 42.0827 82.5876 42.0827Z" fill="white"/>
<path d="M66.7494 40.9308C65.0691 40.9308 63.3888 40.9308 61.693 40.9308C61.1173 40.9308 60.6039 40.8375 60.6195 40.1373C60.6195 39.4372 61.164 39.375 61.7241 39.375C65.0847 39.375 68.4608 39.375 71.8214 39.375C72.3814 39.375 72.9104 39.4683 72.8949 40.1685C72.8949 40.8686 72.3503 40.9464 71.7902 40.9308C70.11 40.9308 68.4297 40.9308 66.7338 40.9308H66.7494Z" fill="white"/>
<path d="M74.4503 67.3644C72.7389 67.3644 71.0275 67.3644 69.3317 67.3644C68.756 67.3644 68.2426 67.2244 68.2582 66.5554C68.2737 65.9331 68.7716 65.8086 69.3317 65.8086C72.7233 65.8086 76.115 65.8086 79.5067 65.8086C80.0824 65.8086 80.5958 65.9019 80.5647 66.6176C80.5491 67.2711 80.0512 67.3644 79.5067 67.3644C77.8264 67.3644 76.1461 67.3644 74.4659 67.3644H74.4503Z" fill="white"/>
<path d="M74.4211 54.4349C72.6631 54.4349 70.905 54.4349 69.1469 54.4349C68.7113 54.4349 68.3846 54.2482 68.2601 53.8281C68.1668 53.4858 68.3379 53.2369 68.6024 53.0346C68.7891 52.9102 68.9913 52.9102 69.1936 52.9102C72.6631 52.9102 76.1325 52.9102 79.5864 52.9102C80.1154 52.9102 80.5355 53.0502 80.5355 53.6569C80.5355 54.2637 80.131 54.4349 79.602 54.4349C77.8751 54.4349 76.1325 54.4349 74.4056 54.4349H74.4211Z" fill="white"/>
<path d="M74.3735 47.9622C72.6932 47.9622 71.0129 47.9622 69.3326 47.9622C68.8037 47.9622 68.2747 47.9 68.2591 47.2465C68.228 46.562 68.757 46.4375 69.3326 46.4375C72.7399 46.4375 76.1627 46.4375 79.5699 46.4375C80.1611 46.4375 80.6278 46.6086 80.5501 47.3088C80.4878 47.9 80.0366 47.9466 79.5699 47.9466C77.8429 47.9466 76.1004 47.9466 74.3735 47.9466V47.9622Z" fill="white"/>
<path d="M74.4502 60.892C72.7388 60.892 71.043 60.892 69.3316 60.892C68.7559 60.892 68.227 60.8142 68.2425 60.114C68.2425 59.4762 68.7871 59.3828 69.316 59.3828C72.7077 59.3828 76.0838 59.3828 79.4755 59.3828C80.02 59.3828 80.5646 59.445 80.549 60.1763C80.5335 60.8453 80.02 60.9075 79.4911 60.9075C77.8108 60.9075 76.1305 60.9075 74.4502 60.9075V60.892Z" fill="white"/>
<path d="M60.5428 69.2174C60.3094 69.1863 60.1071 69.0774 59.936 68.9062C59.2359 68.2061 58.5358 67.5215 57.8512 66.8214C57.4934 66.4636 57.3689 66.0591 57.7734 65.6701C58.1779 65.2967 58.5824 65.4212 58.9403 65.779C59.3292 66.168 59.7337 66.5258 60.0916 66.9459C60.4339 67.3504 60.6828 67.3815 61.0562 66.9614C61.8808 66.0746 62.7676 65.2345 63.6233 64.3632C63.9967 63.9898 64.4323 63.6787 64.899 64.1299C65.3502 64.5811 65.0857 65.0167 64.6812 65.4056C63.561 66.5103 62.4409 67.6304 61.3207 68.7506C61.1029 68.9684 60.8695 69.1863 60.5428 69.2174Z" fill="white"/>
<path d="M60.4484 49.8603C60.2617 49.8603 60.0751 49.7047 59.9195 49.5492C59.2349 48.8646 58.5659 48.1956 57.8814 47.511C57.5235 47.1688 57.3524 46.7798 57.7413 46.3597C58.1614 45.9241 58.5659 46.0641 58.9549 46.4531C59.0482 46.5464 59.1416 46.6398 59.2349 46.7331C60.1373 47.6355 61.0293 47.6459 61.9109 46.7643C62.5332 46.1419 63.1556 45.5196 63.7779 44.8973C64.1357 44.5394 64.5402 44.415 64.9136 44.835C65.2559 45.2084 65.1626 45.5974 64.8358 45.9397C63.6068 47.1688 62.3777 48.3979 61.1641 49.6114C60.993 49.7825 60.7907 49.8914 60.4796 49.8759L60.4484 49.8603Z" fill="white"/>
<path d="M60.588 56.3024C60.3235 56.3024 60.1057 56.1468 59.919 55.9601C59.2344 55.2911 58.5654 54.6065 57.8809 53.9375C57.523 53.5952 57.3519 53.1752 57.7253 52.7862C58.1142 52.3817 58.5654 52.475 58.9388 52.8796C59.3433 53.2841 59.7789 53.6575 60.1368 54.0931C60.4635 54.482 60.6813 54.4043 60.9925 54.0775C61.8482 53.1752 62.7506 52.3195 63.6218 51.4327C64.0108 51.0437 64.4308 50.7948 64.882 51.2615C65.3021 51.6971 65.0376 52.1017 64.6798 52.475C63.5285 53.6264 62.3772 54.7777 61.2259 55.929C61.0392 56.1157 60.8369 56.2557 60.5569 56.3179L60.588 56.3024Z" fill="white"/>
<path d="M65.1003 58.2154C65.1003 58.4954 64.9292 58.6977 64.7425 58.8844C63.5756 60.0512 62.3932 61.2336 61.2263 62.4005C60.7751 62.8517 60.3395 62.8673 59.8883 62.4005C59.2193 61.716 58.5348 61.047 57.8658 60.3624C57.5079 60.0046 57.3835 59.6 57.7724 59.2111C58.1769 58.8221 58.5659 58.9466 58.9237 59.3044C59.266 59.6467 59.6705 59.9579 59.9661 60.3468C60.4329 60.9536 60.7596 60.8136 61.2263 60.3313C62.0509 59.4445 62.9377 58.6043 63.7934 57.7486C64.0579 57.4841 64.338 57.3441 64.6958 57.5308C64.9603 57.6708 65.1159 57.9042 65.1003 58.2309V58.2154Z" fill="white"/>
</g>
<path d="M93.6052 22.1094H44.3287C39.9878 22.1094 36.5312 25.566 36.5312 29.9068V31.3537C36.5312 27.0129 39.9878 23.5563 44.3287 23.5563H93.6052C97.946 23.5563 101.403 27.0129 101.403 31.3537V29.9068C101.403 25.566 97.946 22.1094 93.6052 22.1094Z" fill="white"/>
<path d="M93.604 19.8594H44.3275C38.7809 19.8594 34.2793 24.361 34.2793 29.9076V79.1841C34.2793 84.7308 38.7809 89.2324 44.3275 89.2324H93.604C99.1507 89.2324 103.652 84.7308 103.652 79.1841V29.9076C103.652 24.361 99.1507 19.8594 93.604 19.8594ZM101.401 79.1841C101.401 83.525 97.9449 86.9816 93.604 86.9816H44.3275C39.9867 86.9816 36.5301 83.525 36.5301 79.1841V29.9076C36.5301 25.5668 39.9867 22.1102 44.3275 22.1102H93.604C97.9449 22.1102 101.401 25.5668 101.401 29.9076V79.1841Z" fill="url(#paint3_linear_482_4244)"/>
</g>
<defs>
<filter id="filter0_d_482_4244" x="-0.000520229" y="-0.00177097" width="125.151" height="125.151" filterUnits="userSpaceOnUse" color-interpolation-filters="sRGB">
<feFlood flood-opacity="0" result="BackgroundImageFix"/>
<feColorMatrix in="SourceAlpha" type="matrix" values="0 0 0 0 0 0 0 0 0 0 0 0 0 0 0 0 0 0 127 0" result="hardAlpha"/>
<feOffset dx="-6.43087" dy="8.03858"/>
<feGaussianBlur stdDeviation="8.84244"/>
<feColorMatrix type="matrix" values="0 0 0 0 0.709804 0 0 0 0 0.85098 0 0 0 0 0.960784 0 0 0 0.8 0"/>
<feBlend mode="normal" in2="BackgroundImageFix" result="effect1_dropShadow_482_4244"/>
<feBlend mode="normal" in="SourceGraphic" in2="effect1_dropShadow_482_4244" result="shape"/>
</filter>
<filter id="filter1_f_482_4244" x="6.58633" y="-7.91172" width="90.8391" height="90.8391" filterUnits="userSpaceOnUse" color-interpolation-filters="sRGB">
<feFlood flood-opacity="0" result="BackgroundImageFix"/>
<feBlend mode="normal" in="SourceGraphic" in2="BackgroundImageFix" result="shape"/>
<feGaussianBlur stdDeviation="3.95" result="effect1_foregroundBlur_482_4244"/>
</filter>
<filter id="filter2_f_482_4244" x="6.08633" y="-8.41172" width="91.8391" height="91.8391" filterUnits="userSpaceOnUse" color-interpolation-filters="sRGB">
<feFlood flood-opacity="0" result="BackgroundImageFix"/>
<feBlend mode="normal" in="SourceGraphic" in2="BackgroundImageFix" result="shape"/>
<feGaussianBlur stdDeviation="4.2" result="effect1_foregroundBlur_482_4244"/>
</filter>
<linearGradient id="paint0_linear_482_4244" x1="52.0056" y1="-3.49194" x2="56.9071" y2="59.2267" gradientUnits="userSpaceOnUse">
<stop stop-color="#9BF763"/>
<stop offset="1" stop-color="#26AB5B"/>
</linearGradient>
<linearGradient id="paint1_linear_482_4244" x1="69.0053" y1="5.48105" x2="74.8696" y2="80.5207" gradientUnits="userSpaceOnUse">
<stop stop-color="#9BF763"/>
<stop offset="1" stop-color="#26AB5B"/>
</linearGradient>
<linearGradient id="paint2_linear_482_4244" x1="69.0068" y1="23.2348" x2="69.0068" y2="85.9357" gradientUnits="userSpaceOnUse">
<stop stop-color="white" stop-opacity="0.6"/>
<stop offset="0.1" stop-color="white" stop-opacity="0.5"/>
<stop offset="0.2" stop-color="white" stop-opacity="0.5"/>
<stop offset="0.3" stop-color="white" stop-opacity="0.5"/>
<stop offset="0.5" stop-color="#FDFDFD" stop-opacity="0.5"/>
<stop offset="0.7" stop-color="#F9F9F9" stop-opacity="0.4"/>
<stop offset="0.9" stop-color="#F3F3F3" stop-opacity="0.4"/>
<stop offset="1" stop-color="#EFEFEF" stop-opacity="0.3"/>
</linearGradient>
<linearGradient id="paint3_linear_482_4244" x1="34.3597" y1="54.5057" x2="103.733" y2="54.5057" gradientUnits="userSpaceOnUse">
<stop stop-color="white" stop-opacity="0.8"/>
<stop offset="0.1" stop-color="white" stop-opacity="0.7"/>
<stop offset="0.2" stop-color="white" stop-opacity="0.5"/>
<stop offset="0.3" stop-color="white" stop-opacity="0.5"/>
<stop offset="0.5" stop-color="#FDFDFD" stop-opacity="0.5"/>
<stop offset="0.7" stop-color="#F9F9F9" stop-opacity="0.4"/>
<stop offset="0.9" stop-color="#F3F3F3" stop-opacity="0.4"/>
<stop offset="1" stop-color="#EFEFEF" stop-opacity="0.3"/>
</linearGradient>
<clipPath id="clip0_482_4244">
<rect width="32.9833" height="40" fill="white" transform="translate(52.5137 34.0547)"/>
</clipPath>
</defs>
</svg>
