<svg width="126" height="126" viewBox="0 0 126 126" fill="none" xmlns="http://www.w3.org/2000/svg">
<g filter="url(#filter0_d_482_4030)">
<g opacity="0.6">
<mask id="mask0_482_4030" style="mask-type:luminance" maskUnits="userSpaceOnUse" x="34" y="19" width="70" height="71">
<path d="M93.6509 19.8594H44.3744C38.8249 19.8594 34.3262 24.3581 34.3262 29.9076V79.1841C34.3262 84.7336 38.8249 89.2324 44.3744 89.2324H93.6509C99.2004 89.2324 103.699 84.7336 103.699 79.1841V29.9076C103.699 24.3581 99.2004 19.8594 93.6509 19.8594Z" fill="white"/>
</mask>
<g mask="url(#mask0_482_4030)">
<g filter="url(#filter1_f_482_4030)">
<path d="M23.7647 38.4208L52.8874 9.29817C56.1655 6.02009 61.4864 6.02009 64.7645 9.29817L93.8871 38.4208C97.1652 41.6989 97.1652 47.0198 93.8871 50.2979L64.7645 79.4206C61.4864 82.6987 56.1655 82.6987 52.8874 79.4206L23.7647 50.2979C20.4866 47.0198 20.4866 41.6989 23.7647 38.4208Z" fill="url(#paint0_linear_482_4030)"/>
</g>
</g>
</g>
<mask id="mask1_482_4030" style="mask-type:luminance" maskUnits="userSpaceOnUse" x="18" y="4" width="101" height="101">
<path d="M104.503 4.50391H33.4421C25.4035 4.50391 18.9727 11.0152 18.9727 18.9734V90.0345C18.9727 98.073 25.4839 104.504 33.4421 104.504H104.503C112.542 104.504 118.973 97.9927 118.973 90.0345V19.0537C118.973 11.0152 112.461 4.58429 104.503 4.58429V4.50391ZM103.699 79.1824C103.699 84.729 99.1977 89.2306 93.6511 89.2306H44.3746C38.828 89.2306 34.3264 84.729 34.3264 79.1824V29.9058C34.3264 24.3592 38.828 19.8576 44.3746 19.8576H93.6511C99.1977 19.8576 103.699 24.3592 103.699 29.9058V79.1824Z" fill="white"/>
</mask>
<g mask="url(#mask1_482_4030)">
<path d="M27.0563 47.43L61.9001 12.5862C65.8222 8.66416 72.1884 8.66416 76.1105 12.5862L110.954 47.43C114.876 51.352 114.876 57.7183 110.954 61.6403L76.1105 96.4841C72.1884 100.406 65.8222 100.406 61.9001 96.4841L27.0563 61.6403C23.1343 57.7183 23.1343 51.352 27.0563 47.43Z" fill="url(#paint1_linear_482_4030)"/>
</g>
<path d="M44.3756 22.1094H93.6521C97.9929 22.1094 101.45 25.566 101.45 29.9068V79.1833C101.45 83.5242 97.9929 86.9808 93.6521 86.9808H44.3756C40.0347 86.9808 36.5781 83.5242 36.5781 79.1833V29.9068C36.5781 25.566 40.0347 22.1094 44.3756 22.1094Z" fill="url(#paint2_linear_482_4030)"/>
<g clip-path="url(#clip0_482_4030)">
<path d="M54.3432 36.407C54.4569 36.4638 54.6131 36.5206 54.7551 36.5916C55.1529 36.8047 55.5932 36.9751 55.9057 37.2734C56.6444 37.9553 57.3262 37.6001 58.0364 37.2734C58.2779 37.1598 58.2921 36.9609 58.3347 36.7479C58.5051 36.1087 58.6898 35.4695 58.8461 34.8303C58.9597 34.4609 59.2012 34.3047 59.5847 34.3047C59.9824 34.3047 60.3801 34.3047 60.7921 34.3047C61.6444 34.3047 62.1747 34.7261 62.383 35.5689C62.4398 35.8246 62.5676 36.0661 62.5676 36.3217C62.5819 37.3303 63.4199 37.4297 64.0733 37.728C64.2864 37.8274 64.4284 37.657 64.5847 37.5717C65.1671 37.245 65.7353 36.9325 66.3034 36.5774C66.6444 36.3643 66.9142 36.3786 67.1841 36.6768C67.1983 36.6911 67.2125 36.7053 67.2409 36.7195C68.4247 37.799 68.6093 39.0395 67.7949 40.4411C67.2836 41.3217 67.7381 42.3871 68.7466 42.6286C69.3006 42.7706 69.8404 42.9411 70.3944 43.0689C70.7921 43.1683 70.9341 43.4098 70.9341 43.7933C70.9341 44.4041 70.9341 45.0291 70.9341 45.6399C70.9341 46.0945 70.7211 46.3359 70.2949 46.4354C69.883 46.5348 69.4711 46.6911 69.0591 46.7479C68.2921 46.8473 67.8659 47.2166 67.6387 47.9695C67.525 48.3246 67.5108 48.5661 67.7097 48.8786C68.0364 49.4041 68.3205 49.9439 68.6472 50.4695C68.8887 50.853 68.8603 51.1513 68.5194 51.4638C68.079 51.8615 67.6671 52.2876 67.2694 52.7138C66.9284 53.0831 66.6017 53.0831 66.204 52.8274C65.7069 52.5149 65.1813 52.245 64.6841 51.9325C64.3858 51.7479 64.1301 51.7905 63.775 51.8473C62.7807 52.032 62.6529 52.7848 62.4682 53.5376C61.9853 55.5263 62.1415 55.1001 60.4512 55.1286C58.9881 55.157 58.9881 55.1286 58.6188 53.6655C58.562 53.4098 58.4767 53.1683 58.4057 52.9126C58.15 51.9467 57.0989 51.5064 56.2466 52.0036C56.2324 52.0036 56.204 52.0178 56.1898 52.032C54.7788 52.8558 53.543 52.6428 52.4824 51.3928C52.2267 51.0945 52.1983 50.8246 52.3972 50.4979C52.6529 50.0717 52.8517 49.603 53.15 49.2195C53.5478 48.6797 53.562 48.1967 53.2779 47.6001C53.079 47.174 52.8659 46.9183 52.383 46.8331C51.8006 46.7337 51.2466 46.5206 50.6784 46.3786C50.2807 46.2791 50.1387 46.0518 50.1387 45.6683C50.1387 45.0291 50.1387 44.3899 50.1387 43.7507C50.1387 43.353 50.3233 43.1399 50.6926 43.0547C51.2182 42.9268 51.7438 42.7706 52.2694 42.6286C53.3489 42.3445 53.7608 41.3075 53.2211 40.3274C51.9142 37.9695 51.7864 38.8359 53.704 36.8331C53.8745 36.6484 54.0449 36.4354 54.3716 36.3928L54.3432 36.407ZM67.6671 38.6939C67.6387 38.6229 67.6245 38.5661 67.5961 38.5092C67.2125 37.7564 66.6017 37.5717 65.8631 37.9979C65.4512 38.2393 65.0392 38.4666 64.6415 38.7223C64.4 38.8786 64.1586 38.8928 63.9029 38.7933C62.615 38.3198 61.8053 37.406 61.4739 36.0518C61.4313 35.8956 61.3887 35.7393 61.3461 35.5689C61.3176 35.4411 61.2324 35.3842 61.1046 35.3416C60.3375 35.0859 59.7551 35.3984 59.5563 36.1655C59.4426 36.62 59.3148 37.0746 59.187 37.5291C59.1159 37.7848 59.0023 37.9979 58.7466 38.1257C57.5345 38.7128 56.3366 38.6607 55.1529 37.9695C55.0534 37.9126 54.9256 37.87 54.8404 37.799C54.3574 37.3729 54.1444 37.8416 53.8745 38.0973C53.5904 38.353 53.2069 38.5661 53.5904 39.0774C53.9455 39.5462 54.2012 40.0859 54.4995 40.5973C54.6415 40.8388 54.6983 41.0661 54.5989 41.3359C54.1728 42.5954 53.3158 43.4051 52.0279 43.7649C51.9142 43.7933 51.8006 43.8359 51.687 43.8359C51.0336 43.8643 51.1472 44.3331 51.133 44.7592C51.1188 45.2138 51.133 45.5831 51.7154 45.6825C52.2551 45.7678 52.7665 45.9524 53.2921 46.0803C53.5762 46.1513 53.8176 46.2649 53.9455 46.549C54.5042 47.7895 54.4332 49.0111 53.7324 50.2138C53.6898 50.299 53.6472 50.3842 53.5904 50.4553C53.2211 50.853 53.5336 51.1087 53.8034 51.3217C54.0875 51.549 54.2438 52.1172 54.812 51.7337C55.2949 51.3928 55.8347 51.1371 56.3461 50.8388C56.6017 50.6967 56.8432 50.6115 57.1557 50.7109C58.4341 51.1655 59.2438 52.0509 59.5847 53.3672C59.6131 53.4808 59.6415 53.5945 59.6557 53.7081C59.7125 54.2053 60.0676 54.2195 60.437 54.1768C60.8205 54.1342 61.3176 54.3757 61.4455 53.7223C61.5591 53.1399 61.7438 52.5717 61.8716 52.0036C61.9284 51.7337 62.0279 51.5206 62.2836 51.3786C64.0591 50.4695 64.1444 50.4695 65.8915 51.4922C65.9483 51.5348 66.0194 51.5632 66.0762 51.6058C66.5023 51.9609 66.8006 51.8331 67.1983 51.4638C67.6671 51.0234 67.7381 50.6825 67.3546 50.1712C67.0705 49.8018 66.8716 49.3615 66.6301 48.9496C66.4739 48.6939 66.4029 48.4382 66.5165 48.1399C67.1699 46.2365 67.1983 46.2081 69.1728 45.7251C69.329 45.6825 69.4995 45.6541 69.6557 45.5973C69.7836 45.5547 69.9114 45.5121 69.9682 45.3558C70.2381 44.6598 69.8972 43.9922 69.1728 43.7933C69.0591 43.7649 68.9455 43.6939 68.8319 43.6939C67.7381 43.5803 67.1131 43.0689 66.7438 41.9609C66.5023 41.2223 66.4739 40.6825 66.9 40.0717C67.1983 39.6456 67.4256 39.1768 67.6955 38.7223L67.6671 38.6939Z" fill="white"/>
<path d="M75.8618 74.3061C73.3761 74.3061 70.8903 74.3061 68.4045 74.3061C67.7937 74.3061 67.538 74.1214 67.5664 73.4964C67.6374 71.4368 67.4101 69.3771 67.6942 67.3316C67.9925 65.1441 69.1857 63.5106 71.0891 62.4595C71.7425 62.1044 71.8704 61.9055 71.5437 61.1811C70.6062 59.1498 71.2738 56.7919 73.0493 55.4708C74.8107 54.1782 77.2255 54.2351 78.9016 55.6129C80.6062 57.0191 81.1459 59.3913 80.1232 61.3941C79.8533 61.9339 79.9954 62.0618 80.4499 62.3174C82.8079 63.5816 84.0579 65.5987 84.1715 68.2691C84.2425 70.0163 84.1715 71.7777 84.1999 73.5248C84.1999 74.1072 83.9726 74.3203 83.3903 74.3203C80.8761 74.3061 78.3761 74.3203 75.8618 74.3203V74.3061ZM75.8476 73.2833C78.092 73.2833 80.3505 73.2833 82.5948 73.2833C83.0493 73.2833 83.2198 73.1697 83.2056 72.6868C83.1772 71.2379 83.234 69.8032 83.1772 68.3544C83.092 65.8828 81.913 64.1072 79.6829 63.0277C79.2993 62.843 79.0153 62.8714 78.6601 63.1271C76.9414 64.3771 74.8249 64.3771 73.1062 63.1271C72.7084 62.843 72.4243 62.8572 72.0124 63.0561C69.8391 64.1356 68.6743 65.8686 68.5891 68.2833C68.5323 69.7322 68.5891 71.1669 68.5607 72.6157C68.5465 73.1555 68.717 73.2976 69.2425 73.2976C71.4442 73.2691 73.6459 73.2976 75.8476 73.2976V73.2833ZM79.6403 59.2777C79.6403 57.1754 77.9357 55.5277 75.8192 55.5561C73.7596 55.5845 72.1118 57.2606 72.1118 59.3345C72.1118 61.3799 73.8164 63.0703 75.8618 63.0845C77.9215 63.0845 79.6403 61.3657 79.6403 59.2919V59.2777Z" fill="white"/>
<path d="M59.0153 69.8739C57.2397 69.8739 55.4642 69.8739 53.6886 69.8739C52.8221 69.8739 52.7227 69.7745 52.7227 68.8796C52.7227 67.0756 52.6801 65.2859 52.7369 63.4819C52.7653 62.729 52.5096 62.5444 51.8136 62.6012C51.0181 62.658 50.2085 62.6296 49.3988 62.6012C48.6318 62.6012 48.4471 62.2745 48.8164 61.6211C50.0806 59.4052 51.359 57.2035 52.6517 55.0018C53.0352 54.3484 53.3903 54.3484 53.7738 55.0018C55.0664 57.2035 56.3448 59.4194 57.609 61.6211C57.9784 62.2603 57.7653 62.587 57.0125 62.6012C56.0892 62.6012 55.1659 62.6154 54.2426 62.6012C53.859 62.6012 53.6886 62.7148 53.7028 63.1268C53.717 64.8597 53.7312 66.5785 53.7028 68.3114C53.7028 68.837 53.9727 68.8654 54.3704 68.8654C57.609 68.8654 60.8477 68.8654 64.0863 68.8654C64.5125 68.8654 65.1801 68.6381 65.1801 69.3768C65.1801 70.0444 64.5267 69.8455 64.1147 69.8455C62.4102 69.8597 60.7056 69.8455 59.0011 69.8455L59.0153 69.8739ZM53.234 56.0245C52.1971 57.8285 51.2312 59.4762 50.2795 61.1239C50.109 61.4222 50.0096 61.6353 50.521 61.6353C52.3392 61.6353 54.1573 61.6353 55.9897 61.6353C56.3164 61.6353 56.4301 61.5501 56.2454 61.2234C55.2653 59.533 54.2852 57.8427 53.2483 56.0245H53.234Z" fill="white"/>
<path d="M79.2861 44.1758C81.0616 44.1758 82.8372 44.2042 84.6128 44.1758C85.2946 44.1758 85.5361 44.4031 85.5361 45.0849C85.5077 46.9741 85.5361 48.8775 85.5219 50.7667C85.5219 51.2923 85.6639 51.4769 86.2037 51.4485C87.0986 51.4059 88.0077 51.4201 88.9026 51.4485C89.6128 51.4485 89.7974 51.7894 89.4423 52.4002C88.1639 54.6303 86.8713 56.8604 85.5787 59.0906C85.2378 59.6587 84.8543 59.6729 84.5276 59.119C83.2207 56.8746 81.9139 54.6303 80.6213 52.3718C80.2946 51.7894 80.4935 51.4627 81.1611 51.4485C82.056 51.4343 82.9651 51.4201 83.8599 51.4485C84.3571 51.4627 84.5702 51.3491 84.5702 50.7951C84.5418 49.1332 84.5418 47.4854 84.5702 45.8235C84.5702 45.3263 84.4139 45.1843 83.931 45.1843C80.6923 45.1985 77.4537 45.1843 74.2008 45.1843C74.0162 45.1843 73.8173 45.1843 73.6327 45.1843C73.3202 45.1701 73.0645 45.0423 73.0787 44.6871C73.0787 44.332 73.3202 44.2042 73.6469 44.19C74.2577 44.19 74.8827 44.19 75.4935 44.19C76.7719 44.19 78.0503 44.19 79.3287 44.19L79.2861 44.1758ZM88.1639 52.5565C88.0645 52.4996 88.0219 52.457 87.9935 52.457C86.0901 52.457 84.1724 52.457 82.269 52.4428C81.7861 52.4428 81.9281 52.6701 82.0702 52.9116C82.823 54.2184 83.5616 55.5252 84.3287 56.832C84.5418 57.1871 84.6696 57.8121 85.0247 57.8121C85.3798 57.8121 85.5077 57.1871 85.7207 56.832C86.5588 55.4116 87.3543 53.9911 88.1781 52.5707L88.1639 52.5565Z" fill="white"/>
<path d="M56.1895 44.7025C56.1895 42.3303 58.1497 40.3843 60.536 40.3985C62.9082 40.3985 64.8684 42.3872 64.8542 44.7593C64.84 47.1315 62.8798 49.0633 60.4934 49.0633C58.1213 49.0633 56.1895 47.1031 56.1895 44.7025ZM60.536 48.0548C62.3542 48.0548 63.8883 46.5065 63.8599 44.7025C63.8315 42.8985 62.2832 41.3644 60.4792 41.3786C58.6752 41.3786 57.1554 42.9269 57.1696 44.7451C57.1696 46.5775 58.6895 48.0548 60.536 48.0548Z" fill="white"/>
</g>
<path d="M93.572 22.1094H44.2955C39.9546 22.1094 36.498 25.566 36.498 29.9068V31.3537C36.498 27.0129 39.9546 23.5563 44.2955 23.5563H93.572C97.9128 23.5563 101.369 27.0129 101.369 31.3537V29.9068C101.369 25.566 97.9128 22.1094 93.572 22.1094Z" fill="white"/>
<path d="M93.5709 19.8594H44.2943C38.7477 19.8594 34.2461 24.361 34.2461 29.9076V79.1841C34.2461 84.7308 38.7477 89.2324 44.2943 89.2324H93.5709C99.1175 89.2324 103.619 84.7308 103.619 79.1841V29.9076C103.619 24.361 99.1175 19.8594 93.5709 19.8594ZM101.368 79.1841C101.368 83.525 97.9117 86.9816 93.5709 86.9816H44.2943C39.9535 86.9816 36.4969 83.525 36.4969 79.1841V29.9076C36.4969 25.5668 39.9535 22.1102 44.2943 22.1102H93.5709C97.9117 22.1102 101.368 25.5668 101.368 29.9076V79.1841Z" fill="url(#paint3_linear_482_4030)"/>
</g>
<defs>
<filter id="filter0_d_482_4030" x="-0.000520706" y="-0.00177002" width="125.151" height="125.151" filterUnits="userSpaceOnUse" color-interpolation-filters="sRGB">
<feFlood flood-opacity="0" result="BackgroundImageFix"/>
<feColorMatrix in="SourceAlpha" type="matrix" values="0 0 0 0 0 0 0 0 0 0 0 0 0 0 0 0 0 0 127 0" result="hardAlpha"/>
<feOffset dx="-6.43087" dy="8.03859"/>
<feGaussianBlur stdDeviation="8.84244"/>
<feColorMatrix type="matrix" values="0 0 0 0 0.709804 0 0 0 0 0.85098 0 0 0 0 0.960784 0 0 0 0.8 0"/>
<feBlend mode="normal" in2="BackgroundImageFix" result="effect1_dropShadow_482_4030"/>
<feBlend mode="normal" in="SourceGraphic" in2="effect1_dropShadow_482_4030" result="shape"/>
</filter>
<filter id="filter1_f_482_4030" x="12.1066" y="-2.36016" width="93.4391" height="93.4391" filterUnits="userSpaceOnUse" color-interpolation-filters="sRGB">
<feFlood flood-opacity="0" result="BackgroundImageFix"/>
<feBlend mode="normal" in="SourceGraphic" in2="BackgroundImageFix" result="shape"/>
<feGaussianBlur stdDeviation="4.6" result="effect1_foregroundBlur_482_4030"/>
</filter>
<linearGradient id="paint0_linear_482_4030" x1="58.7925" y1="-4.93259" x2="58.798" y2="164.331" gradientUnits="userSpaceOnUse">
<stop stop-color="#8CF9FF"/>
<stop offset="0.2" stop-color="#83D2FF"/>
<stop offset="0.6" stop-color="#6DAFFF"/>
<stop offset="1" stop-color="#2A54C7"/>
</linearGradient>
<linearGradient id="paint1_linear_482_4030" x1="68.9653" y1="-4.44017" x2="68.9718" y2="198.075" gradientUnits="userSpaceOnUse">
<stop stop-color="#8CF9FF"/>
<stop offset="0.2" stop-color="#83D2FF"/>
<stop offset="0.6" stop-color="#6DAFFF"/>
<stop offset="1" stop-color="#2A54C7"/>
</linearGradient>
<linearGradient id="paint2_linear_482_4030" x1="68.9736" y1="23.2348" x2="68.9736" y2="85.9357" gradientUnits="userSpaceOnUse">
<stop stop-color="white" stop-opacity="0.6"/>
<stop offset="0.1" stop-color="white" stop-opacity="0.5"/>
<stop offset="0.2" stop-color="white" stop-opacity="0.5"/>
<stop offset="0.3" stop-color="white" stop-opacity="0.5"/>
<stop offset="0.5" stop-color="#FDFDFD" stop-opacity="0.5"/>
<stop offset="0.7" stop-color="#F9F9F9" stop-opacity="0.4"/>
<stop offset="0.9" stop-color="#F3F3F3" stop-opacity="0.4"/>
<stop offset="1" stop-color="#EFEFEF" stop-opacity="0.3"/>
</linearGradient>
<linearGradient id="paint3_linear_482_4030" x1="34.3265" y1="54.5861" x2="103.619" y2="54.5861" gradientUnits="userSpaceOnUse">
<stop stop-color="white" stop-opacity="0.8"/>
<stop offset="0.1" stop-color="white" stop-opacity="0.7"/>
<stop offset="0.2" stop-color="white" stop-opacity="0.5"/>
<stop offset="0.3" stop-color="white" stop-opacity="0.5"/>
<stop offset="0.5" stop-color="#FDFDFD" stop-opacity="0.5"/>
<stop offset="0.7" stop-color="#F9F9F9" stop-opacity="0.4"/>
<stop offset="0.9" stop-color="#F3F3F3" stop-opacity="0.4"/>
<stop offset="1" stop-color="#EFEFEF" stop-opacity="0.3"/>
</linearGradient>
<clipPath id="clip0_482_4030">
<rect width="40.9517" height="40" fill="white" transform="translate(48.6465 34.3047)"/>
</clipPath>
</defs>
</svg>
