<svg width="174" height="54" viewBox="0 0 174 54" fill="none" xmlns="http://www.w3.org/2000/svg">
<g clip-path="url(#clip0_759_550)">
<path d="M78.6063 36.5611H74.5722C73.8603 36.5611 73.3857 36.3807 73.1484 36.08C72.9111 35.7794 72.7331 35.2382 72.7331 34.5165V22.7905C72.7331 22.7304 72.7331 22.6101 72.6144 22.55C72.5551 22.4898 72.4958 22.4297 72.3771 22.4297H70.1821C70.1228 22.4297 70.0041 22.4297 69.9448 22.55C69.8855 22.6101 69.8262 22.6702 69.8262 22.7905V34.5165C69.8262 36.0199 70.1821 37.1023 70.9533 37.8239C71.6652 38.5455 72.9704 38.9063 74.8095 38.9063C76.6485 38.9063 76.3519 38.9063 77.2418 38.786C78.3096 38.6658 78.6063 38.6056 78.7249 38.5455C78.7842 38.5455 78.9029 38.4252 78.9029 38.2448V36.8016C78.9029 36.7415 78.9029 36.6212 78.7842 36.5611C78.7249 36.501 78.6656 36.4408 78.5469 36.4408" fill="#485F86"/>
<path d="M90.7674 23.5753C89.6995 22.7334 88.1571 22.3125 86.14 22.3125C84.123 22.3125 84.123 22.3125 83.1738 22.4328C81.8686 22.553 81.572 22.6733 81.4534 22.7334C81.3347 22.7936 81.2754 22.974 81.2754 23.1544V38.4283C81.2754 38.4884 81.2754 38.6087 81.394 38.6688C81.4534 38.729 81.5127 38.7891 81.6313 38.7891H83.8264C83.8857 38.7891 84.0043 38.7891 84.0637 38.6688C84.0637 38.6087 84.123 38.5486 84.123 38.4283V32.4751H84.2416C85.1315 32.5352 85.7841 32.5954 86.1994 32.5954C87.5045 32.5954 88.691 32.415 89.5809 31.994C90.4708 31.6332 91.1827 31.0319 91.6573 30.3103C92.1319 29.5887 92.3692 28.6265 92.3692 27.484V27.3036C92.3692 25.68 91.8352 24.4172 90.7674 23.5753ZM89.5809 27.484C89.5809 28.4461 89.2843 29.1677 88.7503 29.5887C88.2164 30.0096 87.3265 30.2501 86.1994 30.2501C85.0722 30.2501 85.0722 30.2501 84.2416 30.19H84.123V24.6577H84.2416C84.8349 24.5976 85.4875 24.5374 86.1994 24.5374C87.3859 24.5374 88.2164 24.778 88.8097 25.1989C89.3436 25.6199 89.6402 26.3415 89.6402 27.2435V27.4239L89.5809 27.484Z" fill="#485F86"/>
<path d="M98.1828 31.0312H93.852C93.7334 31.0312 93.6741 31.0313 93.6147 31.0914C93.5554 31.0914 93.4961 31.2117 93.4961 31.3319V32.715C93.4961 32.8353 93.4961 33.0157 93.7927 33.0157H98.1234C98.3607 33.0157 98.4201 32.9555 98.4201 32.715V31.3319C98.4201 31.0914 98.3607 31.0312 98.1234 31.0312" fill="#485F86"/>
<path d="M110.76 22.9716C110.76 22.8513 110.76 22.7311 110.7 22.6709C110.7 22.6709 110.463 22.5507 109.217 22.4304C108.268 22.3101 107.259 22.25 106.251 22.25C104.412 22.25 103.166 22.6108 102.395 23.3324C101.683 24.054 101.268 25.1965 101.268 26.6999V38.3658C101.268 38.4259 101.268 38.5462 101.386 38.6063C101.446 38.6665 101.505 38.7266 101.624 38.7266H103.759C103.878 38.7266 103.937 38.7266 103.997 38.6063C104.056 38.5462 104.115 38.4861 104.115 38.3658V31.4504H110.166C110.285 31.4504 110.344 31.4504 110.404 31.3302C110.463 31.27 110.522 31.2099 110.522 31.0896V29.466C110.522 29.4059 110.522 29.2856 110.404 29.2255C110.344 29.1654 110.285 29.1052 110.166 29.1052H104.115V26.5796C104.115 25.858 104.234 25.3168 104.53 25.0161C104.827 24.7155 105.302 24.5351 106.014 24.5351H110.522C110.641 24.5351 110.7 24.5351 110.76 24.4148C110.819 24.3547 110.878 24.2945 110.878 24.1743V22.7311L110.76 22.9716Z" fill="#485F86"/>
<path d="M116.456 22.4922H114.261C114.143 22.4922 114.083 22.4922 114.024 22.5523C114.024 22.6125 113.965 22.6726 113.965 22.7929V38.4276C113.965 38.4877 113.965 38.608 114.083 38.6681C114.143 38.7283 114.202 38.7884 114.321 38.7884H116.516C116.575 38.7884 116.694 38.7884 116.753 38.6681C116.812 38.608 116.872 38.5479 116.872 38.4276V22.7929C116.872 22.7327 116.872 22.6726 116.753 22.6125C116.694 22.5523 116.634 22.5523 116.516 22.5523" fill="#485F86"/>
<path d="M132.414 22.7929C132.414 22.5523 132.354 22.4922 132.117 22.4922H130.219C129.981 22.4922 129.922 22.5523 129.922 22.7929V34.4588C129.922 34.7594 129.744 34.7594 129.685 34.7594C129.566 34.7594 129.447 34.6993 129.388 34.5189L124.286 23.0935C124.167 22.853 124.049 22.6726 123.93 22.6125C123.811 22.4922 123.633 22.4922 123.396 22.4922H121.023C120.786 22.4922 120.608 22.5523 120.489 22.7327C120.311 22.9131 120.252 23.0334 120.252 23.2739V38.4276C120.252 38.4877 120.252 38.608 120.371 38.6681C120.43 38.7283 120.489 38.7884 120.608 38.7884H122.447C122.506 38.7884 122.566 38.7884 122.625 38.6681C122.684 38.608 122.684 38.5479 122.684 38.4276V27.2427C122.684 26.9421 122.862 26.9421 122.922 26.9421C123.04 26.9421 123.159 27.0022 123.218 27.1826L128.083 38.0067C128.261 38.3675 128.379 38.5479 128.557 38.608C128.735 38.6681 128.973 38.7283 129.329 38.7283H131.524C131.702 38.7283 131.88 38.6681 132.058 38.4877C132.236 38.3073 132.295 38.1871 132.295 37.9465V22.7327L132.414 22.7929Z" fill="#485F86"/>
<path d="M140.717 22.3125C140.006 22.3125 139.116 22.3125 137.929 22.4328C136.387 22.553 136.149 22.6733 136.09 22.6733C135.971 22.7936 135.912 22.9138 135.912 23.1544V38.1276C135.912 38.308 135.912 38.4884 136.09 38.6087C136.09 38.6087 136.387 38.7891 137.929 38.8492C139.056 38.9094 140.006 38.9695 140.717 38.9695C142.912 38.9695 144.574 38.3682 145.76 37.2256C146.947 36.0831 147.54 34.3994 147.54 32.2947V29.0475C147.54 26.8827 146.947 25.259 145.76 24.1165C144.574 22.974 142.912 22.3726 140.717 22.3726M144.692 32.2947C144.692 33.7379 144.396 34.8203 143.743 35.5419C143.09 36.2635 142.082 36.6243 140.717 36.6243C139.353 36.6243 139.828 36.6243 138.878 36.5642H138.76V24.778H138.878C139.828 24.778 140.421 24.7178 140.717 24.7178C141.963 24.7178 142.972 25.0185 143.624 25.68C144.336 26.3415 144.692 27.4239 144.692 29.0475V32.2947Z" fill="#485F86"/>
<path d="M159.17 22.9716C159.17 22.8513 159.17 22.7311 159.11 22.6709C159.11 22.6709 158.873 22.5507 157.627 22.4304C156.678 22.3101 155.67 22.25 154.661 22.25C152.822 22.25 151.576 22.6108 150.805 23.3324C150.093 24.054 149.678 25.1965 149.678 26.6999V34.4571C149.678 35.9605 150.034 37.0429 150.805 37.7645C151.517 38.4861 152.822 38.8469 154.661 38.8469C156.5 38.8469 156.915 38.8469 157.746 38.6665C158.873 38.5462 159.051 38.4259 159.051 38.4259C159.11 38.4259 159.11 38.2455 159.11 38.1854V36.7422C159.11 36.6821 159.11 36.5618 158.992 36.5017C158.932 36.4415 158.873 36.3814 158.754 36.3814H154.246C153.534 36.3814 153.059 36.201 152.763 35.9003C152.466 35.5997 152.347 35.0585 152.347 34.3369V31.3302H158.398C158.517 31.3302 158.576 31.3302 158.636 31.2099C158.695 31.1498 158.754 31.0896 158.754 30.9694V29.3458C158.754 29.2856 158.754 29.1654 158.636 29.1052C158.576 29.0451 158.517 28.985 158.398 28.985H152.347V26.4594C152.347 25.7378 152.466 25.1965 152.763 24.8959C153.059 24.5952 153.534 24.4148 154.246 24.4148H158.754C158.814 24.4148 158.932 24.4148 158.992 24.2945C159.051 24.2344 159.11 24.1743 159.11 24.054V22.6108L159.17 22.9716Z" fill="#485F86"/>
<path d="M170.441 31.8737H170.56C172.518 31.0319 173.467 29.5887 173.467 27.4239V27.2435C173.467 25.6199 172.933 24.4172 171.865 23.5753C170.797 22.7334 169.255 22.3125 167.238 22.3125C165.221 22.3125 165.221 22.3125 164.271 22.4328C162.966 22.553 162.67 22.6733 162.551 22.7334C162.432 22.7936 162.373 22.974 162.373 23.1544V38.4283C162.373 38.4884 162.373 38.6087 162.492 38.6688C162.551 38.729 162.61 38.7891 162.729 38.7891H164.924C164.983 38.7891 165.102 38.7891 165.161 38.729C165.161 38.6688 165.221 38.6087 165.221 38.4884V32.3548H165.339C166.229 32.415 166.882 32.4751 167.297 32.4751H167.653L170.501 37.827C170.916 38.6087 171.034 38.7891 171.034 38.7891C171.034 38.7891 171.034 38.7891 171.153 38.7891H173.823C173.941 38.7891 173.941 38.7891 173.941 38.6688C173.941 38.5486 173.941 38.6087 173.941 38.5486L170.441 31.9339V31.8737ZM167.238 30.1299C166.763 30.1299 166.111 30.1299 165.28 30.0697H165.161V24.8381H165.28C165.873 24.778 166.585 24.7178 167.238 24.7178C168.365 24.7178 169.195 24.8982 169.789 25.3192C170.382 25.7401 170.679 26.3415 170.679 27.2435V27.4239C170.679 28.386 170.441 29.1076 169.907 29.5285C169.373 29.9495 168.543 30.1299 167.297 30.1299" fill="#485F86"/>
<path d="M65.3763 30.6109L65.139 30.4907L65.3763 30.3704C66.0288 30.1299 66.5034 29.6488 66.8001 29.1076C67.156 28.5063 67.334 27.8448 67.334 27.1232V26.7023C67.334 23.7557 65.139 22.3125 60.6896 22.3125C56.2402 22.3125 59.0878 22.3125 58.1386 22.4328C56.9521 22.4929 56.5962 22.6733 56.4775 22.7936C56.2996 22.974 56.2402 23.2145 56.2402 23.6354V37.6466C56.2402 38.0675 56.3589 38.3682 56.5962 38.5486C56.8335 38.729 57.4267 38.7891 58.2573 38.8492C59.0878 38.9094 60.037 38.9695 60.9862 38.9695C63.2406 38.9695 64.9017 38.5486 65.9695 37.827C67.0374 37.0452 67.5713 35.9027 67.5713 34.3392V33.9784C67.5713 32.415 66.9187 31.3325 65.4949 30.7312M59.0878 24.778H59.2065C59.8591 24.778 60.393 24.7178 60.8083 24.7178C62.232 24.7178 63.2406 24.8982 63.8338 25.1989C64.4271 25.5597 64.7237 26.1611 64.7237 26.9428V27.2435C64.7237 28.7468 63.7745 29.4684 61.9948 29.4684H59.0878V24.7178V24.778ZM64.8423 34.3392C64.8423 35.2412 64.5457 35.8426 63.8931 36.2034C63.2999 36.5642 62.3507 36.7446 60.9862 36.7446H59.0878V31.5731H61.9948C62.8846 31.5731 63.5965 31.8136 64.0711 32.2345C64.5457 32.6555 64.783 33.2568 64.783 34.0386V34.3392H64.8423Z" fill="#485F86"/>
<path d="M10.4409 22.793C10.3816 22.9734 10.3222 23.2139 10.2036 23.3943C9.90696 24.1159 9.43236 24.7172 8.89844 25.1983L19.9329 29.7685C19.9922 28.8063 20.2295 27.8442 20.5854 26.9422L10.4409 22.793Z" fill="#D6D5D4"/>
<path d="M45.5606 12.1494C44.7893 11.7886 44.1961 11.2474 43.6622 10.5859L33.9922 22.5525C34.8227 23.0937 35.594 23.6951 36.1872 24.4768L45.9165 12.3298C45.7385 12.3298 45.6199 12.2095 45.5012 12.1494H45.5606Z" fill="#D6D5D4"/>
<path d="M10.5596 24.2349C10.6189 24.0545 10.6782 23.8139 10.7376 23.5734C10.9155 22.9119 10.9749 22.1903 10.8562 21.5288C10.8562 21.4086 10.8562 21.2282 10.7969 21.1079C10.7969 21.1079 10.7969 21.0478 10.7969 20.9876C10.7969 20.8674 10.7969 20.7471 10.6782 20.6268V20.5066C10.6782 20.3863 10.6189 20.266 10.5596 20.1458C10.5596 20.0856 10.5596 20.0255 10.5003 19.9654C10.5003 19.8451 10.3816 19.785 10.3816 19.6647C10.3816 19.6046 10.3223 19.5444 10.263 19.4242C10.263 19.364 10.2036 19.3039 10.1443 19.2438C10.1443 19.1836 10.0257 19.1235 9.96635 19.0032C9.96635 19.0032 9.90702 18.883 9.8477 18.8228C9.8477 18.7627 9.72905 18.7026 9.66972 18.5823C9.66972 18.5823 9.6104 18.462 9.55107 18.462C9.43242 18.3418 9.31377 18.2215 9.19512 18.1012C9.19512 18.1012 9.07647 17.981 9.01715 17.981C8.60187 17.6202 8.06795 17.3195 7.53403 17.079C6.7628 16.7783 5.93225 16.658 5.04238 16.7182C3.79655 16.8384 2.66938 17.3195 1.77951 18.1614C1.18626 18.7026 0.711659 19.4242 0.415034 20.2059C0.415034 20.2059 0.415034 20.3262 0.355709 20.3863C0.355709 20.5066 0.296384 20.5667 0.237059 20.687C0.237059 20.7471 0.237059 20.8072 0.237059 20.8674C0.237059 20.9876 0.237059 21.0478 0.177734 21.168C0.177734 21.2282 0.177734 21.2883 0.177734 21.3484C0.177734 21.4687 0.177734 21.589 0.177734 21.7092C0.177734 21.7092 0.177734 21.8295 0.177734 21.8897C0.177734 22.0099 0.177734 22.1903 0.177734 22.3106C0.177734 22.491 0.177734 22.6113 0.177734 22.7917C0.177734 22.7917 0.177734 22.9119 0.177734 22.9721C0.177734 23.0923 0.177734 23.2126 0.177734 23.3329C0.177734 23.393 0.177734 23.4531 0.177734 23.5133C0.177734 23.6335 0.177734 23.6937 0.237059 23.8139C0.237059 23.8741 0.237059 23.9342 0.237059 23.9943C0.237059 24.1146 0.296384 24.1747 0.355709 24.295C0.355709 24.3551 0.355709 24.4153 0.415034 24.4754C0.415034 24.5957 0.533684 24.7159 0.593009 24.8362C0.593009 24.8963 0.652334 25.0166 0.711659 25.0767C0.711659 25.1369 0.770984 25.197 0.830308 25.2571C0.830308 25.3173 0.948958 25.4375 1.00828 25.4977C1.00828 25.4977 1.06761 25.5578 1.12693 25.6179C1.18626 25.6781 1.24558 25.7983 1.30491 25.8585C1.30491 25.8585 1.30491 25.8585 1.30491 25.9186C1.83883 26.5199 2.55073 27.0611 3.32196 27.3618C3.9152 27.6023 4.44913 27.7226 5.04238 27.7226C5.04238 27.7226 5.1017 27.7226 5.16103 27.7226C5.39833 27.7226 5.5763 27.7226 5.8136 27.7226C6.11023 27.7226 6.40685 27.6625 6.70348 27.5422C7.65268 27.3017 8.54255 26.8206 9.19512 26.099C9.72905 25.5578 10.1443 24.9565 10.4409 24.2349M4.3898 24.5957C3.38128 24.1747 2.78803 23.2126 2.78803 22.2505C2.78803 21.8897 2.78803 21.589 2.96601 21.2282C3.32196 20.3262 4.1525 19.6647 5.16103 19.6046C5.5763 19.6046 5.93225 19.6046 6.34753 19.785C7.29673 20.1458 7.88997 21.0478 7.9493 22.0099C7.9493 22.0099 7.9493 22.0701 7.9493 22.1302C7.9493 22.491 7.9493 22.7917 7.77133 23.1525C7.712 23.3329 7.65267 23.4531 7.53403 23.6335C7.29673 23.9943 6.94078 24.3551 6.5255 24.5355C5.87293 24.8362 5.16103 24.8963 4.44913 24.6558" fill="#F2CB29"/>
<path d="M55.0539 6.25626C55.0539 6.07586 55.0539 5.89546 55.0539 5.71506V5.59479C55.0539 5.47453 55.0539 5.29413 54.9946 5.17386C54.9946 5.17386 54.9946 5.05359 54.9946 4.99346C54.9946 4.81306 54.9353 4.69279 54.876 4.57252C54.876 4.51239 54.876 4.39212 54.8166 4.33199C54.8166 4.21172 54.698 4.09145 54.698 3.97119C54.698 3.85092 54.6387 3.79079 54.5793 3.73065C54.5793 3.67052 54.52 3.55025 54.4607 3.49012C54.4607 3.36985 54.342 3.30972 54.2827 3.18945C54.2827 3.12932 54.2234 3.06918 54.1641 3.00905C54.1641 2.88878 54.0454 2.82865 53.9861 2.70838C53.9861 2.64825 53.8674 2.58811 53.8674 2.52798C53.7488 2.34758 53.6301 2.22731 53.5115 2.10704C53.5115 2.10704 53.3928 1.98678 53.3335 1.92664C52.8589 1.44557 52.325 1.02464 51.6724 0.72397C50.7825 0.242901 49.774 0.0625 48.8248 0.0625C47.3417 0.0625 45.9772 0.543569 44.85 1.44557C44.0788 2.04691 43.4856 2.76851 43.011 3.67052C43.011 3.73065 43.011 3.79079 42.9517 3.85092C42.9517 3.97119 42.833 4.09145 42.833 4.21172C42.833 4.27185 42.833 4.39212 42.7737 4.45226C42.7737 4.57252 42.7144 4.69279 42.655 4.81306C42.655 4.87319 42.655 4.93332 42.655 5.05359C42.655 5.17386 42.655 5.29413 42.5957 5.41439C42.5957 5.47453 42.5957 5.53466 42.5957 5.59479C42.5957 5.7752 42.5957 5.9556 42.5957 6.136C42.5957 6.3164 42.5957 6.4968 42.5957 6.73733C42.5957 6.79747 42.5957 6.8576 42.5957 6.91773C42.5957 7.038 42.5957 7.15827 42.5957 7.33867C42.5957 7.3988 42.5957 7.45894 42.5957 7.5792C42.5957 7.69947 42.5957 7.81974 42.655 7.94001C42.655 8.00014 42.655 8.12041 42.655 8.18054C42.655 8.30081 42.7144 8.42107 42.7737 8.54134C42.7737 8.60148 42.7737 8.72174 42.833 8.78188C42.833 8.90214 42.9517 9.08255 43.011 9.20281C43.011 9.32308 43.0703 9.38321 43.1296 9.50348C43.1296 9.56361 43.189 9.62375 43.2483 9.74402C43.2483 9.86428 43.3669 9.92442 43.4262 10.0447C43.4262 10.0447 43.4856 10.165 43.5449 10.2251C43.6042 10.3454 43.6636 10.4656 43.7822 10.5258C43.7822 10.5258 43.7822 10.5258 43.8415 10.5859C44.4348 11.3075 45.1467 11.969 46.0365 12.45C46.2145 12.5102 46.3925 12.6304 46.5705 12.6906C47.0451 12.871 47.579 12.9912 48.0536 13.0514C48.0536 13.0514 48.1129 13.0514 48.1722 13.0514C48.4095 13.0514 48.6468 13.0514 48.9435 13.0514C49.2994 13.0514 49.6554 13.0514 50.0113 12.9311C52.0284 12.5703 53.8081 11.3075 54.7573 9.38321C55.2319 8.36094 55.4692 7.27854 55.4099 6.25626C55.4099 6.25626 55.4099 6.25626 55.4099 6.19613M51.6724 7.87987C51.5538 8.06027 51.4944 8.24067 51.3758 8.36094C50.7825 9.14268 49.8333 9.56361 48.8841 9.50348C48.4689 9.50348 48.0536 9.38321 47.6383 9.20281C46.9264 8.84201 46.3925 8.18054 46.1552 7.45894C46.0365 7.09813 45.9772 6.6772 45.9772 6.25626C45.9772 5.83533 46.0959 5.47453 46.2738 5.05359C46.8078 3.97119 47.8163 3.36985 49.0028 3.36985C50.1893 3.36985 49.952 3.49012 50.3673 3.67052C51.4944 4.21172 52.147 5.41439 52.0284 6.61707C52.0284 7.038 51.9097 7.3988 51.7317 7.81974" fill="#14BDEF"/>
<path d="M40.9359 39.8095C40.6393 39.5689 40.224 39.5689 39.9274 39.8095L39.7494 40.05L37.4951 37.9453C37.3764 38.1257 36.4866 39.0879 36.3086 39.2081L38.5629 41.3128L38.385 41.5533C38.2663 41.6736 38.207 41.854 38.207 42.0344C38.207 42.2148 38.2663 42.3952 38.4443 42.5155L50.3686 53.7605C50.4873 53.8807 50.6652 53.9409 50.8432 53.9409C51.0212 53.9409 51.1992 53.8807 51.3178 53.7003L52.8602 51.9565C53.0975 51.6558 53.0975 51.2348 52.8602 50.9342L40.9359 39.6892V39.8095Z" fill="#485F86"/>
<path d="M29.1877 42.9938C22.4247 42.9938 16.9668 37.4014 16.9668 30.6063C16.9668 23.8112 22.484 18.2188 29.1877 18.2188C35.8914 18.2188 41.4087 23.8112 41.4087 30.6063C41.4087 37.4014 35.8914 42.9938 29.1877 42.9938ZM29.1877 21.2254C24.0858 21.2254 19.933 25.4348 19.933 30.6063C19.933 35.7778 24.0858 39.9871 29.1877 39.9871C34.2897 39.9871 38.4424 35.7778 38.4424 30.6063C38.4424 25.4348 34.2897 21.2254 29.1877 21.2254Z" fill="#485F86"/>
<path d="M33.4607 26.097C32.9861 25.6159 32.5115 25.2551 31.9183 24.9544C31.7403 24.8943 31.5623 24.8342 31.4437 24.7139C30.7318 24.4132 30.0199 24.293 29.2487 24.293C27.8842 24.293 26.579 24.774 25.5112 25.6159C25.3925 25.7362 25.2739 25.7963 25.1552 25.9166C24.6213 26.3976 24.1467 26.999 23.7908 27.7206C23.7908 27.7807 23.7908 27.8409 23.7314 27.901C23.7314 28.0213 23.6128 28.1415 23.6128 28.2017C23.6128 28.2618 23.6128 28.3219 23.5535 28.4422C23.5535 28.5023 23.5535 28.5625 23.5535 28.6226V28.7429C23.5535 28.803 23.5535 28.8631 23.5535 28.9834C23.5535 29.1037 23.5535 29.2239 23.4941 29.3442C23.4941 29.4043 23.4941 29.4645 23.4941 29.5246C23.4941 29.705 23.4941 29.8253 23.4941 30.0057C23.4941 30.1861 23.4941 30.3665 23.4941 30.5469C23.4941 30.5469 23.4941 30.6671 23.4941 30.7273C23.4941 30.8475 23.4941 30.9678 23.4941 31.0881C23.4941 31.1482 23.4941 31.2083 23.4941 31.2685C23.4941 31.3887 23.4941 31.509 23.5535 31.6293C23.5535 31.6894 23.5535 31.7495 23.5535 31.8698C23.5535 31.9901 23.6128 32.1103 23.6721 32.2306C23.6721 32.2907 23.6721 32.411 23.7314 32.4711C23.7314 32.5914 23.8501 32.7718 23.9094 32.8921C23.9094 32.9522 23.9687 33.0725 24.0281 33.1326C24.0281 33.1927 24.0874 33.2529 24.1467 33.313C24.1467 33.4333 24.2654 33.4934 24.3247 33.6137C24.3247 33.6137 24.384 33.7339 24.4433 33.7941C24.5027 33.9143 24.562 33.9745 24.6213 34.0948C24.6213 34.0948 24.6213 34.0947 24.6213 34.1549C25.1552 34.8765 25.8671 35.538 26.757 35.9589C27.3503 36.2596 28.0028 36.44 28.6554 36.5602C28.6554 36.5602 28.7147 36.5602 28.7741 36.5602C29.0114 36.5602 29.2487 36.5602 29.486 36.5602C29.8419 36.5602 30.1979 36.5602 30.4945 36.44C32.3929 36.1393 34.054 34.9366 34.9439 33.1326C35.4185 32.1705 35.5964 31.1482 35.5371 30.1861C35.5371 30.0057 35.5371 29.8854 35.5371 29.705V29.5847C35.5371 29.4645 35.5371 29.3442 35.4778 29.1638C35.4778 29.1638 35.4778 29.0435 35.4778 28.9834C35.4778 28.8631 35.4185 28.6827 35.3591 28.5625C35.3591 28.5023 35.3591 28.3821 35.2998 28.3219C35.2998 28.2017 35.2405 28.0814 35.1812 27.9611C35.1812 27.901 35.1218 27.7807 35.0625 27.7206C35.0625 27.6605 35.0032 27.6003 34.9439 27.4801C34.9439 27.4199 34.8252 27.2996 34.8252 27.2395C34.8252 27.1794 34.7659 27.1192 34.7066 27.0591C34.7066 26.999 34.5879 26.8787 34.5286 26.8186C34.5286 26.8186 34.4693 26.6983 34.4099 26.6382C34.2913 26.5179 34.1726 26.3375 34.054 26.2172C34.054 26.2172 33.9353 26.097 33.876 26.0368M32.4522 30.607C32.4522 30.9678 32.3336 31.3887 32.1556 31.6894C32.0963 31.8698 31.9776 32.0502 31.859 32.1705C31.0284 33.1927 29.5453 33.6137 28.2995 33.0123C27.3503 32.5313 26.8163 31.6293 26.6977 30.6671C26.6977 30.5469 26.6977 30.3665 26.6977 30.2462C26.6977 29.8854 26.8163 29.4645 26.9943 29.1638C27.2909 28.5625 27.7062 28.1415 28.2401 27.8409C28.6554 27.6605 29.0707 27.5402 29.5453 27.5402C30.0199 27.5402 29.6046 27.5402 29.6639 27.5402C30.0792 27.5402 30.4352 27.6605 30.7911 27.8409C31.503 28.2017 31.9776 28.803 32.2149 29.4645C32.3336 29.8253 32.3929 30.1861 32.3929 30.607" fill="#DC3B4F"/>
</g>
<defs>
<clipPath id="clip0_759_550">
<rect width="174" height="54" fill="white"/>
</clipPath>
</defs>
</svg>
