<svg width="211" height="51" viewBox="0 0 211 51" fill="none" xmlns="http://www.w3.org/2000/svg">
<path d="M208.864 50.5617C209.414 50.6152 209.903 50.2129 209.956 49.6632L210.828 40.7055C210.881 40.1558 210.479 39.6669 209.929 39.6134C209.38 39.5599 208.891 39.9622 208.837 40.5119L208.062 48.4743L200.1 47.6996C199.55 47.6462 199.061 48.0484 199.008 48.5981C198.954 49.1478 199.357 49.6368 199.906 49.6902L208.864 50.5617ZM0.227036 48.9311C-0.12384 49.3576 -0.0625306 49.9878 0.363968 50.3386C0.790466 50.6895 1.42065 50.6282 1.77153 50.2017L0.999283 49.5664L0.227036 48.9311ZM208.961 49.5664L209.733 48.9311C209.206 48.2904 208.673 47.6546 208.134 47.0239L207.374 47.6738L206.613 48.3236C207.145 48.9447 207.67 49.5708 208.189 50.2017L208.961 49.5664ZM204.093 43.98L204.828 43.3019C203.703 42.0828 202.555 40.8845 201.384 39.7076L200.675 40.4129L199.966 41.1181C201.119 42.2773 202.25 43.4575 203.358 44.6581L204.093 43.98ZM197.125 36.9764L197.807 36.245C196.594 35.1141 195.36 34.0052 194.104 32.9189L193.45 33.6752L192.795 34.4316C194.033 35.5016 195.249 36.5939 196.443 37.7077L197.125 36.9764ZM189.653 30.5137L190.279 29.7335C188.986 28.6965 187.672 27.6825 186.338 26.6923L185.742 27.4952L185.146 28.2981C186.46 29.2736 187.754 30.2724 189.028 31.2939L189.653 30.5137ZM181.722 24.6245L182.287 23.8C180.921 22.8622 179.536 21.9485 178.132 21.0597L177.597 21.9045L177.062 22.7493C178.445 23.625 179.81 24.525 181.156 25.4489L181.722 24.6245ZM173.375 19.3384L173.878 18.4744C172.447 17.6404 170.998 16.8317 169.533 16.0487L169.062 16.9308L168.59 17.8128C170.034 18.5841 171.461 19.3808 172.871 20.2024L173.375 19.3384ZM164.662 14.6834L165.1 13.7846C163.612 13.0583 162.107 12.3582 160.587 11.6849L160.182 12.5992L159.777 13.5135C161.274 14.1769 162.757 14.8666 164.224 15.5821L164.662 14.6834ZM155.63 10.6819L156.001 9.75336C154.463 9.13883 152.912 8.55123 151.346 7.99119L151.009 8.93276L150.672 9.87433C152.215 10.4261 153.744 11.005 155.259 11.6105L155.63 10.6819ZM146.327 7.35396L146.629 6.40067C145.051 5.90088 143.461 5.4287 141.859 4.98473L141.592 5.94842L141.325 6.91212C142.904 7.34957 144.47 7.8148 146.025 8.30724L146.327 7.35396ZM136.807 4.7165L137.039 3.7437C135.429 3.36036 133.808 3.00524 132.176 2.67891L131.98 3.6595L131.784 4.64009C133.392 4.96166 134.99 5.31158 136.576 5.6893L136.807 4.7165ZM127.12 2.77922L127.28 1.79216C125.648 1.52702 124.007 1.29049 122.355 1.08311L122.231 2.07532L122.106 3.06753C123.733 3.2719 125.351 3.50499 126.96 3.76628L127.12 2.77922ZM117.317 1.54797L117.406 0.551921C115.76 0.405097 114.105 0.287158 112.442 0.19863L112.389 1.19722L112.336 2.1958C113.975 2.28306 115.606 2.39931 117.228 2.54401L117.317 1.54797ZM107.453 1.02236L107.471 0.0225131C106.643 0.00786459 105.812 0.000505967 104.98 0.000505894L104.98 1.00051L104.98 2.00051C105.8 2.00051 106.619 2.00776 107.436 2.0222L107.453 1.02236ZM104.98 1.00051L104.98 0.000505894C104.148 0.000505821 103.318 0.0078643 102.489 0.0225127L102.507 1.02236L102.525 2.0222C103.341 2.00776 104.16 2.00051 104.98 2.00051L104.98 1.00051ZM97.5713 1.19721L97.5181 0.198629C95.8552 0.287161 94.2003 0.405099 92.5541 0.551919L92.6429 1.54797L92.7318 2.54402C94.3543 2.39931 95.9853 2.28306 97.6244 2.1958L97.5713 1.19721ZM87.7296 2.07532L87.605 1.08312C85.9537 1.29049 84.3117 1.52702 82.6798 1.79216L82.8402 2.77922L83.0005 3.76628C84.6087 3.50499 86.2268 3.2719 87.8542 3.06753L87.7296 2.07532ZM77.9804 3.6595L77.7843 2.67891C76.1522 3.00524 74.5309 3.36036 72.9211 3.7437L73.1527 4.7165L73.3844 5.6893C74.9706 5.31158 76.5682 4.96166 78.1764 4.64009L77.9804 3.6595ZM68.3684 5.94842L68.1014 4.98473C66.499 5.42869 64.9088 5.90087 63.3315 6.40067L63.6336 7.35395L63.9357 8.30724C65.4897 7.8148 67.0565 7.34957 68.6354 6.91212L68.3684 5.94842ZM58.951 8.93276L58.6142 7.99119C57.0486 8.55123 55.4968 9.13883 53.9593 9.75335L54.3305 10.6819L54.7016 11.6105C56.2164 11.005 57.7453 10.4261 59.2878 9.87433L58.951 8.93276ZM49.7785 12.5992L49.3734 11.6849C47.8534 12.3582 46.3486 13.0583 44.8598 13.7846L45.2982 14.6834L45.7366 15.5821C47.2034 14.8666 48.6859 14.1769 50.1835 13.5135L49.7785 12.5992ZM40.8985 16.9308L40.4273 16.0487C38.9619 16.8317 37.5132 17.6404 36.082 18.4744L36.5855 19.3384L37.0889 20.2024C38.4989 19.3808 39.9261 18.5841 41.3697 17.8128L40.8985 16.9308ZM32.3628 21.9045L31.8278 21.0597C30.4243 21.9485 29.039 22.8622 27.6728 23.8L28.2387 24.6245L28.8046 25.4489C30.1506 24.525 31.5152 23.625 32.8978 22.7493L32.3628 21.9045ZM24.2184 27.4952L23.6222 26.6923C22.2886 27.6825 20.9747 28.6965 19.6812 29.7335L20.3067 30.5137L20.9323 31.2939C22.2064 30.2724 23.5007 29.2736 24.8145 28.2981L24.2184 27.4952ZM16.5107 33.6752L15.8565 32.9189C14.6005 34.0052 13.3658 35.1141 12.153 36.245L12.835 36.9764L13.517 37.7077C14.7115 36.5939 15.9277 35.5016 17.1648 34.4316L16.5107 33.6752ZM9.28542 40.4128L8.57649 39.7076C7.40561 40.8845 6.25745 42.0828 5.13271 43.3019L5.86768 43.98L6.60263 44.6581C7.71034 43.4575 8.84113 42.2773 9.99434 41.1181L9.28542 40.4128ZM2.58665 47.6737L1.82658 47.0239C1.28732 47.6546 0.75412 48.2904 0.227036 48.9311L0.999283 49.5664L1.77153 50.2017C2.29059 49.5708 2.81567 48.9447 3.34673 48.3236L2.58665 47.6737ZM208.864 50.5617C209.414 50.6152 209.903 50.2129 209.956 49.6632L210.828 40.7055C210.881 40.1558 210.479 39.6669 209.929 39.6134C209.38 39.5599 208.891 39.9622 208.837 40.5119L208.062 48.4743L200.1 47.6996C199.55 47.6462 199.061 48.0484 199.008 48.5981C198.954 49.1478 199.357 49.6368 199.906 49.6902L208.864 50.5617ZM0.227036 48.9311C-0.12384 49.3576 -0.0625306 49.9878 0.363968 50.3386C0.790466 50.6895 1.42065 50.6282 1.77153 50.2017L0.999283 49.5664L0.227036 48.9311ZM208.961 49.5664L209.733 48.9311C209.206 48.2904 208.673 47.6546 208.134 47.0239L207.374 47.6738L206.613 48.3236C207.145 48.9447 207.67 49.5708 208.189 50.2017L208.961 49.5664ZM204.093 43.98L204.828 43.3019C203.703 42.0828 202.555 40.8845 201.384 39.7076L200.675 40.4129L199.966 41.1181C201.119 42.2773 202.25 43.4575 203.358 44.6581L204.093 43.98ZM197.125 36.9764L197.807 36.245C196.594 35.1141 195.36 34.0052 194.104 32.9189L193.45 33.6752L192.795 34.4316C194.033 35.5016 195.249 36.5939 196.443 37.7077L197.125 36.9764ZM189.653 30.5137L190.279 29.7335C188.986 28.6965 187.672 27.6825 186.338 26.6923L185.742 27.4952L185.146 28.2981C186.46 29.2736 187.754 30.2724 189.028 31.2939L189.653 30.5137ZM181.722 24.6245L182.287 23.8C180.921 22.8622 179.536 21.9485 178.132 21.0597L177.597 21.9045L177.062 22.7493C178.445 23.625 179.81 24.525 181.156 25.4489L181.722 24.6245ZM173.375 19.3384L173.878 18.4744C172.447 17.6404 170.998 16.8317 169.533 16.0487L169.062 16.9308L168.59 17.8128C170.034 18.5841 171.461 19.3808 172.871 20.2024L173.375 19.3384ZM164.662 14.6834L165.1 13.7846C163.612 13.0583 162.107 12.3582 160.587 11.6849L160.182 12.5992L159.777 13.5135C161.274 14.1769 162.757 14.8666 164.224 15.5821L164.662 14.6834ZM155.63 10.6819L156.001 9.75336C154.463 9.13883 152.912 8.55123 151.346 7.99119L151.009 8.93276L150.672 9.87433C152.215 10.4261 153.744 11.005 155.259 11.6105L155.63 10.6819ZM146.327 7.35396L146.629 6.40067C145.051 5.90088 143.461 5.4287 141.859 4.98473L141.592 5.94842L141.325 6.91212C142.904 7.34957 144.47 7.8148 146.025 8.30724L146.327 7.35396ZM136.807 4.7165L137.039 3.7437C135.429 3.36036 133.808 3.00524 132.176 2.67891L131.98 3.6595L131.784 4.64009C133.392 4.96166 134.99 5.31158 136.576 5.6893L136.807 4.7165ZM127.12 2.77922L127.28 1.79216C125.648 1.52702 124.007 1.29049 122.355 1.08311L122.231 2.07532L122.106 3.06753C123.733 3.2719 125.351 3.50499 126.96 3.76628L127.12 2.77922ZM117.317 1.54797L117.406 0.551921C115.76 0.405097 114.105 0.287158 112.442 0.19863L112.389 1.19722L112.336 2.1958C113.975 2.28306 115.606 2.39931 117.228 2.54401L117.317 1.54797ZM107.453 1.02236L107.471 0.0225131C106.643 0.00786459 105.812 0.000505967 104.98 0.000505894L104.98 1.00051L104.98 2.00051C105.8 2.00051 106.619 2.00776 107.436 2.0222L107.453 1.02236ZM104.98 1.00051L104.98 0.000505894C104.148 0.000505821 103.318 0.0078643 102.489 0.0225127L102.507 1.02236L102.525 2.0222C103.341 2.00776 104.16 2.00051 104.98 2.00051L104.98 1.00051ZM97.5713 1.19721L97.5181 0.198629C95.8552 0.287161 94.2003 0.405099 92.5541 0.551919L92.6429 1.54797L92.7318 2.54402C94.3543 2.39931 95.9853 2.28306 97.6244 2.1958L97.5713 1.19721ZM87.7296 2.07532L87.605 1.08312C85.9537 1.29049 84.3117 1.52702 82.6798 1.79216L82.8402 2.77922L83.0005 3.76628C84.6087 3.50499 86.2268 3.2719 87.8542 3.06753L87.7296 2.07532ZM77.9804 3.6595L77.7843 2.67891C76.1522 3.00524 74.5309 3.36036 72.9211 3.7437L73.1527 4.7165L73.3844 5.6893C74.9706 5.31158 76.5682 4.96166 78.1764 4.64009L77.9804 3.6595ZM68.3684 5.94842L68.1014 4.98473C66.499 5.42869 64.9088 5.90087 63.3315 6.40067L63.6336 7.35395L63.9357 8.30724C65.4897 7.8148 67.0565 7.34957 68.6354 6.91212L68.3684 5.94842ZM58.951 8.93276L58.6142 7.99119C57.0486 8.55123 55.4968 9.13883 53.9593 9.75335L54.3305 10.6819L54.7016 11.6105C56.2164 11.005 57.7453 10.4261 59.2878 9.87433L58.951 8.93276ZM49.7785 12.5992L49.3734 11.6849C47.8534 12.3582 46.3486 13.0583 44.8598 13.7846L45.2982 14.6834L45.7366 15.5821C47.2034 14.8666 48.6859 14.1769 50.1835 13.5135L49.7785 12.5992ZM40.8985 16.9308L40.4273 16.0487C38.9619 16.8317 37.5132 17.6404 36.082 18.4744L36.5855 19.3384L37.0889 20.2024C38.4989 19.3808 39.9261 18.5841 41.3697 17.8128L40.8985 16.9308ZM32.3628 21.9045L31.8278 21.0597C30.4243 21.9485 29.039 22.8622 27.6728 23.8L28.2387 24.6245L28.8046 25.4489C30.1506 24.525 31.5152 23.625 32.8978 22.7493L32.3628 21.9045ZM24.2184 27.4952L23.6222 26.6923C22.2886 27.6825 20.9747 28.6965 19.6812 29.7335L20.3067 30.5137L20.9323 31.2939C22.2064 30.2724 23.5007 29.2736 24.8145 28.2981L24.2184 27.4952ZM16.5107 33.6752L15.8565 32.9189C14.6005 34.0052 13.3658 35.1141 12.153 36.245L12.835 36.9764L13.517 37.7077C14.7115 36.5939 15.9277 35.5016 17.1648 34.4316L16.5107 33.6752ZM9.28542 40.4128L8.57649 39.7076C7.40561 40.8845 6.25745 42.0828 5.13271 43.3019L5.86768 43.98L6.60263 44.6581C7.71034 43.4575 8.84113 42.2773 9.99434 41.1181L9.28542 40.4128ZM2.58665 47.6737L1.82658 47.0239C1.28732 47.6546 0.75412 48.2904 0.227036 48.9311L0.999283 49.5664L1.77153 50.2017C2.29059 49.5708 2.81567 48.9447 3.34673 48.3236L2.58665 47.6737Z" fill="#485F86"/>
</svg>
