<svg width="160" height="132" viewBox="0 0 160 132" fill="none" xmlns="http://www.w3.org/2000/svg">
<g clip-path="url(#clip0_202_896)">
<g filter="url(#filter0_d_202_896)">
<mask id="mask0_202_896" style="mask-type:luminance" maskUnits="userSpaceOnUse" x="63" y="33" width="57" height="59">
<path d="M119.082 38.3343C119.082 35.6818 116.038 33.457 112.409 33.457H63V91.7277H119.082V38.3343Z" fill="white"/>
</mask>
<g mask="url(#mask0_202_896)">
<g filter="url(#filter1_f_202_896)">
<path d="M100.566 52.6116L127.637 72.1892C130.713 73.8344 132.95 73.0118 133.733 69.3924L144.752 18.5017C145.87 14.0597 143.018 12.0855 140.053 13.4017L75.397 37.8599C70.9785 39.6148 71.0344 42.0277 74.614 43.0696L91.2255 48.1697L129.65 24.4243C131.44 23.3276 133.118 23.9308 131.776 25.1373L100.566 52.6116Z" fill="url(#paint0_linear_202_896)"/>
</g>
</g>
<mask id="mask1_202_896" style="mask-type:luminance" maskUnits="userSpaceOnUse" x="78" y="0" width="104" height="92">
<path d="M78.8828 0V33.4564H114.298C116.983 33.4564 119.081 35.5956 119.081 38.3337V91.727H181.603V0H78.8828Z" fill="white"/>
</mask>
<g mask="url(#mask1_202_896)">
<path d="M103.566 46.6116L130.637 66.1892C133.713 67.8344 135.95 67.0118 136.733 63.3924L147.752 12.5017C148.87 8.05975 146.018 6.08554 143.053 7.40168L78.397 31.8599C73.9785 33.6148 74.0344 36.0277 77.614 37.0696L94.2255 42.1697L132.65 18.4243C134.44 17.3276 136.118 17.9308 134.776 19.1373L103.566 46.6116Z" fill="url(#paint1_linear_202_896)"/>
</g>
<path d="M113.44 33.1523H43.4839C40.438 33.1523 37.9688 34.5546 37.9688 36.2844V88.3207C37.9688 90.0505 40.438 91.4528 43.4839 91.4528H113.44C116.486 91.4528 118.955 90.0505 118.955 88.3207V36.2844C118.955 34.5546 116.486 33.1523 113.44 33.1523Z" fill="url(#paint2_linear_202_896)"/>
<path d="M113.438 33.151C116.438 33.151 118.954 34.5797 118.954 36.2831V88.3194C118.954 90.0778 116.535 91.4515 113.438 91.4515H43.4828C40.4833 91.4515 37.9676 90.0228 37.9676 88.3194V36.2831C37.9676 34.5248 40.3865 33.151 43.4828 33.151H113.438ZM113.438 32.6016H43.4828C41.7411 32.6016 40.0962 32.9862 38.9352 33.7005C37.6773 34.4149 37 35.294 37 36.2831V88.3194C37 90.3525 39.9027 92.001 43.4828 92.001H113.438C115.18 92.001 116.825 91.6163 117.986 90.902C119.244 90.1877 119.921 89.3085 119.921 88.3194V36.2831C119.921 34.25 117.018 32.6016 113.438 32.6016Z" fill="url(#paint3_linear_202_896)"/>
<path d="M43.4839 34.636H113.44C116.536 34.636 118.955 36.0097 118.955 37.768V36.2844C118.955 34.581 116.439 33.1523 113.44 33.1523H43.4839C40.3877 33.1523 37.9688 34.581 37.9688 36.2844V37.768C37.9688 36.0646 40.4844 34.636 43.4839 34.636Z" fill="white"/>
</g>
<path d="M50.066 71V62.712H47.35V61.186H54.532V62.712H51.83V71H50.066ZM56.5714 66.674H60.3514C60.3094 65.512 59.6374 64.882 58.5034 64.896C57.4254 64.896 56.6274 65.624 56.5714 66.674ZM58.7974 71.07C56.5714 71.07 54.9054 69.824 54.8354 67.472C54.7654 65.134 56.2214 63.524 58.5874 63.566C61.0514 63.58 61.9614 65.26 61.9614 67.556V68.018H56.5294C56.6694 69.124 57.6914 69.642 58.8114 69.656C59.6794 69.684 60.6594 69.544 61.2894 69.292L61.5974 70.58C60.8274 70.93 59.8614 71.07 58.7974 71.07ZM63.4959 71V61.214H65.1339V71H63.4959ZM68.4249 66.674H72.2049C72.1629 65.512 71.4909 64.882 70.3569 64.896C69.2789 64.896 68.4809 65.624 68.4249 66.674ZM70.6509 71.07C68.4249 71.07 66.7589 69.824 66.6889 67.472C66.6189 65.134 68.0749 63.524 70.4409 63.566C72.9049 63.58 73.8149 65.26 73.8149 67.556V68.018H68.3829C68.5229 69.124 69.5449 69.642 70.6649 69.656C71.5329 69.684 72.5129 69.544 73.1429 69.292L73.4509 70.58C72.6809 70.93 71.7149 71.07 70.6509 71.07ZM79.3255 66.03C79.2835 65.428 78.8635 64.854 78.0515 64.854C77.4215 64.84 76.7915 65.232 76.7775 66.086C76.7495 66.996 77.4215 67.43 78.0655 67.43C78.7235 67.416 79.3955 66.954 79.3255 66.03ZM76.8615 68.48C76.6795 68.788 76.8055 69.096 77.0295 69.32C77.4775 69.236 77.9395 69.208 78.3455 69.208C79.8855 69.194 81.7895 69.656 81.7895 71.434C81.7895 73.282 79.6755 73.786 78.2335 73.786C76.7915 73.786 74.7195 73.282 74.7195 71.434C74.7195 70.664 75.1115 70.146 75.6575 69.81C75.2515 69.124 75.2795 68.284 75.7555 67.626C75.4615 67.22 75.2795 66.73 75.2795 66.128C75.2795 64.518 76.5535 63.552 78.0515 63.552C78.5975 63.552 79.1435 63.678 79.6335 63.944H81.8735V65.106H80.5995C80.7395 65.4 80.7815 65.806 80.7815 66.128C80.7815 67.752 79.5355 68.718 78.0515 68.718C77.6175 68.718 77.2255 68.634 76.8615 68.48ZM78.3175 70.412C77.6595 70.412 76.2175 70.496 76.2175 71.49C76.2175 72.47 77.5755 72.61 78.2335 72.61C78.8775 72.61 80.3055 72.47 80.3055 71.49C80.3055 70.496 78.9755 70.412 78.3175 70.412ZM82.9237 71V63.608H84.2257L84.4637 64.224C84.9677 63.804 85.6677 63.58 86.2977 63.58C86.9277 63.58 87.4597 63.692 88.0337 63.986L87.4037 65.302C87.0817 65.078 86.6897 64.994 86.3117 64.98C85.6257 64.98 84.9397 65.288 84.5897 65.89V71H82.9237ZM94.2469 69.068V65.456C93.8129 65.008 92.9589 64.812 92.3009 64.84C91.1669 64.868 90.2289 65.638 90.2289 67.248C90.2289 68.886 91.1669 69.642 92.3009 69.684C92.9589 69.698 93.8129 69.488 94.2469 69.068ZM88.5909 67.248C88.5909 65.008 90.1309 63.468 92.3429 63.468C93.0149 63.468 93.7989 63.622 94.3869 64L94.5269 63.524H95.8849V71H94.5269L94.3869 70.51C93.7989 70.902 93.0149 71.056 92.3429 71.056C90.1309 71.056 88.5909 69.502 88.5909 67.248ZM97.703 71V63.608H98.991L99.187 64.154C99.817 63.804 100.713 63.566 101.441 63.58C102.267 63.594 102.939 63.832 103.485 64.448C104.269 63.93 105.179 63.566 106.145 63.58C107.951 63.594 109.057 64.616 109.057 66.506V71H107.419V66.604C107.419 65.442 106.789 64.994 106.033 64.98C105.375 64.966 104.647 65.274 104.115 65.75C104.199 66.016 104.199 66.338 104.199 66.604V71H102.561V66.604C102.561 65.47 102.029 65.064 101.343 65.008C100.685 64.966 99.887 65.232 99.341 65.694V71H97.703Z" fill="#45A2FF"/>
</g>
<defs>
<filter id="filter0_d_202_896" x="-10.6" y="-10.3" width="180.2" height="154.2" filterUnits="userSpaceOnUse" color-interpolation-filters="sRGB">
<feFlood flood-opacity="0" result="BackgroundImageFix"/>
<feColorMatrix in="SourceAlpha" type="matrix" values="0 0 0 0 0 0 0 0 0 0 0 0 0 0 0 0 0 0 127 0" result="hardAlpha"/>
<feOffset dx="-13" dy="17.3"/>
<feGaussianBlur stdDeviation="17.3"/>
<feColorMatrix type="matrix" values="0 0 0 0 0.709804 0 0 0 0 0.85098 0 0 0 0 0.960784 0 0 0 0.8 0"/>
<feBlend mode="normal" in2="BackgroundImageFix" result="effect1_dropShadow_202_896"/>
<feBlend mode="normal" in="SourceGraphic" in2="effect1_dropShadow_202_896" result="shape"/>
</filter>
<filter id="filter1_f_202_896" x="64" y="5" width="89" height="76" filterUnits="userSpaceOnUse" color-interpolation-filters="sRGB">
<feFlood flood-opacity="0" result="BackgroundImageFix"/>
<feBlend mode="normal" in="SourceGraphic" in2="BackgroundImageFix" result="shape"/>
<feGaussianBlur stdDeviation="4" result="effect1_foregroundBlur_202_896"/>
</filter>
<linearGradient id="paint0_linear_202_896" x1="79.1803" y1="17.918" x2="128.339" y2="81.2117" gradientUnits="userSpaceOnUse">
<stop stop-color="#E2EFFF"/>
<stop offset="0.2" stop-color="#C0DDFF"/>
<stop offset="0.4" stop-color="#74ABEF" stop-opacity="0.964706"/>
<stop offset="0.7" stop-color="#488BDD"/>
<stop offset="0.9" stop-color="#5A9AE9"/>
<stop offset="1" stop-color="#92BFF6"/>
</linearGradient>
<linearGradient id="paint1_linear_202_896" x1="82.1803" y1="11.918" x2="140.603" y2="87.5128" gradientUnits="userSpaceOnUse">
<stop stop-color="#E2EFFF"/>
<stop offset="0.2" stop-color="#C0DDFF"/>
<stop offset="0.4" stop-color="#74ABEF" stop-opacity="0.964706"/>
<stop offset="0.7" stop-color="#488BDD"/>
<stop offset="0.9" stop-color="#5A9AE9"/>
<stop offset="1" stop-color="#92BFF6"/>
</linearGradient>
<linearGradient id="paint2_linear_202_896" x1="78.5102" y1="34.1414" x2="78.4789" y2="87.0569" gradientUnits="userSpaceOnUse">
<stop stop-color="white" stop-opacity="0.7"/>
<stop offset="0.1" stop-color="white" stop-opacity="0.6"/>
<stop offset="0.2" stop-color="white" stop-opacity="0.5"/>
<stop offset="0.3" stop-color="white" stop-opacity="0.5"/>
<stop offset="0.5" stop-color="#FDFDFD" stop-opacity="0.5"/>
<stop offset="0.7" stop-color="#F9F9F9" stop-opacity="0.4"/>
<stop offset="0.9" stop-color="#F3F3F3" stop-opacity="0.4"/>
<stop offset="1" stop-color="#EFEFEF" stop-opacity="0.3"/>
</linearGradient>
<linearGradient id="paint3_linear_202_896" x1="78.509" y1="92.001" x2="78.509" y2="32.6016" gradientUnits="userSpaceOnUse">
<stop stop-color="white" stop-opacity="0.8"/>
<stop offset="0.1" stop-color="white" stop-opacity="0.7"/>
<stop offset="0.2" stop-color="white" stop-opacity="0.5"/>
<stop offset="0.3" stop-color="white" stop-opacity="0.5"/>
<stop offset="0.5" stop-color="#FDFDFD" stop-opacity="0.5"/>
<stop offset="0.7" stop-color="#F9F9F9" stop-opacity="0.4"/>
<stop offset="0.9" stop-color="#F3F3F3" stop-opacity="0.4"/>
<stop offset="1" stop-color="#EFEFEF" stop-opacity="0.3"/>
</linearGradient>
<clipPath id="clip0_202_896">
<rect width="160" height="132" fill="white"/>
</clipPath>
</defs>
</svg>
